# Blender 4.0.0
# www.blender.org
mtllib cube_8.mtl
o Cube
v -0.500000 -0.500000 0.500000
v -0.357143 -0.500000 0.500000
v -0.214286 -0.500000 0.500000
v -0.071429 -0.500000 0.500000
v 0.071429 -0.500000 0.500000
v 0.214286 -0.500000 0.500000
v 0.357143 -0.500000 0.500000
v 0.500000 -0.500000 0.500000
v -0.500000 -0.500000 0.357143
v -0.357143 -0.500000 0.357143
v -0.214286 -0.500000 0.357143
v -0.071429 -0.500000 0.357143
v 0.071429 -0.500000 0.357143
v 0.214286 -0.500000 0.357143
v 0.357143 -0.500000 0.357143
v 0.500000 -0.500000 0.357143
v -0.500000 -0.500000 0.214286
v -0.357143 -0.500000 0.214286
v -0.214286 -0.500000 0.214286
v -0.071429 -0.500000 0.214286
v 0.071429 -0.500000 0.214286
v 0.214286 -0.500000 0.214286
v 0.357143 -0.500000 0.214286
v 0.500000 -0.500000 0.214286
v -0.500000 -0.500000 0.071429
v -0.357143 -0.500000 0.071429
v -0.214286 -0.500000 0.071429
v -0.071429 -0.500000 0.071429
v 0.071429 -0.500000 0.071429
v 0.214286 -0.500000 0.071429
v 0.357143 -0.500000 0.071429
v 0.500000 -0.500000 0.071429
v -0.500000 -0.500000 -0.071429
v -0.357143 -0.500000 -0.071429
v -0.214286 -0.500000 -0.071429
v -0.071429 -0.500000 -0.071429
v 0.071429 -0.500000 -0.071429
v 0.214286 -0.500000 -0.071429
v 0.357143 -0.500000 -0.071429
v 0.500000 -0.500000 -0.071429
v -0.500000 -0.500000 -0.214286
v -0.357143 -0.500000 -0.214286
v -0.214286 -0.500000 -0.214286
v -0.071429 -0.500000 -0.214286
v 0.071429 -0.500000 -0.214286
v 0.214286 -0.500000 -0.214286
v 0.357143 -0.500000 -0.214286
v 0.500000 -0.500000 -0.214286
v -0.500000 -0.500000 -0.357143
v -0.357143 -0.500000 -0.357143
v -0.214286 -0.500000 -0.357143
v -0.071429 -0.500000 -0.357143
v 0.071429 -0.500000 -0.357143
v 0.214286 -0.500000 -0.357143
v 0.357143 -0.500000 -0.357143
v 0.500000 -0.500000 -0.357143
v -0.500000 -0.500000 -0.500000
v -0.357143 -0.500000 -0.500000
v -0.214286 -0.500000 -0.500000
v -0.071429 -0.500000 -0.500000
v 0.071429 -0.500000 -0.500000
v 0.214286 -0.500000 -0.500000
v 0.357143 -0.500000 -0.500000
v 0.500000 -0.500000 -0.500000
v -0.500000 -0.357143 0.500000
v -0.357143 -0.357143 0.500000
v -0.214286 -0.357143 0.500000
v -0.071429 -0.357143 0.500000
v 0.071429 -0.357143 0.500000
v 0.214286 -0.357143 0.500000
v 0.357143 -0.357143 0.500000
v 0.500000 -0.357143 0.500000
v -0.500000 -0.357143 0.357143
v 0.500000 -0.357143 0.357143
v -0.500000 -0.357143 0.214286
v 0.500000 -0.357143 0.214286
v -0.500000 -0.357143 0.071429
v 0.500000 -0.357143 0.071429
v -0.500000 -0.357143 -0.071429
v 0.500000 -0.357143 -0.071429
v -0.500000 -0.357143 -0.214286
v 0.500000 -0.357143 -0.214286
v -0.500000 -0.357143 -0.357143
v 0.500000 -0.357143 -0.357143
v -0.500000 -0.357143 -0.500000
v -0.357143 -0.357143 -0.500000
v -0.214286 -0.357143 -0.500000
v -0.071429 -0.357143 -0.500000
v 0.071429 -0.357143 -0.500000
v 0.214286 -0.357143 -0.500000
v 0.357143 -0.357143 -0.500000
v 0.500000 -0.357143 -0.500000
v -0.500000 -0.214286 0.500000
v -0.357143 -0.214286 0.500000
v -0.214286 -0.214286 0.500000
v -0.071429 -0.214286 0.500000
v 0.071429 -0.214286 0.500000
v 0.214286 -0.214286 0.500000
v 0.357143 -0.214286 0.500000
v 0.500000 -0.214286 0.500000
v -0.500000 -0.214286 0.357143
v 0.500000 -0.214286 0.357143
v -0.500000 -0.214286 0.214286
v 0.500000 -0.214286 0.214286
v -0.500000 -0.214286 0.071429
v 0.500000 -0.214286 0.071429
v -0.500000 -0.214286 -0.071429
v 0.500000 -0.214286 -0.071429
v -0.500000 -0.214286 -0.214286
v 0.500000 -0.214286 -0.214286
v -0.500000 -0.214286 -0.357143
v 0.500000 -0.214286 -0.357143
v -0.500000 -0.214286 -0.500000
v -0.357143 -0.214286 -0.500000
v -0.214286 -0.214286 -0.500000
v -0.071429 -0.214286 -0.500000
v 0.071429 -0.214286 -0.500000
v 0.214286 -0.214286 -0.500000
v 0.357143 -0.214286 -0.500000
v 0.500000 -0.214286 -0.500000
v -0.500000 -0.071429 0.500000
v -0.357143 -0.071429 0.500000
v -0.214286 -0.071429 0.500000
v -0.071429 -0.071429 0.500000
v 0.071429 -0.071429 0.500000
v 0.214286 -0.071429 0.500000
v 0.357143 -0.071429 0.500000
v 0.500000 -0.071429 0.500000
v -0.500000 -0.071429 0.357143
v 0.500000 -0.071429 0.357143
v -0.500000 -0.071429 0.214286
v 0.500000 -0.071429 0.214286
v -0.500000 -0.071429 0.071429
v 0.500000 -0.071429 0.071429
v -0.500000 -0.071429 -0.071429
v 0.500000 -0.071429 -0.071429
v -0.500000 -0.071429 -0.214286
v 0.500000 -0.071429 -0.214286
v -0.500000 -0.071429 -0.357143
v 0.500000 -0.071429 -0.357143
v -0.500000 -0.071429 -0.500000
v -0.357143 -0.071429 -0.500000
v -0.214286 -0.071429 -0.500000
v -0.071429 -0.071429 -0.500000
v 0.071429 -0.071429 -0.500000
v 0.214286 -0.071429 -0.500000
v 0.357143 -0.071429 -0.500000
v 0.500000 -0.071429 -0.500000
v -0.500000 0.071429 0.500000
v -0.357143 0.071429 0.500000
v -0.214286 0.071429 0.500000
v -0.071429 0.071429 0.500000
v 0.071429 0.071429 0.500000
v 0.214286 0.071429 0.500000
v 0.357143 0.071429 0.500000
v 0.500000 0.071429 0.500000
v -0.500000 0.071429 0.357143
v 0.500000 0.071429 0.357143
v -0.500000 0.071429 0.214286
v 0.500000 0.071429 0.214286
v -0.500000 0.071429 0.071429
v 0.500000 0.071429 0.071429
v -0.500000 0.071429 -0.071429
v 0.500000 0.071429 -0.071429
v -0.500000 0.071429 -0.214286
v 0.500000 0.071429 -0.214286
v -0.500000 0.071429 -0.357143
v 0.500000 0.071429 -0.357143
v -0.500000 0.071429 -0.500000
v -0.357143 0.071429 -0.500000
v -0.214286 0.071429 -0.500000
v -0.071429 0.071429 -0.500000
v 0.071429 0.071429 -0.500000
v 0.214286 0.071429 -0.500000
v 0.357143 0.071429 -0.500000
v 0.500000 0.071429 -0.500000
v -0.500000 0.214286 0.500000
v -0.357143 0.214286 0.500000
v -0.214286 0.214286 0.500000
v -0.071429 0.214286 0.500000
v 0.071429 0.214286 0.500000
v 0.214286 0.214286 0.500000
v 0.357143 0.214286 0.500000
v 0.500000 0.214286 0.500000
v -0.500000 0.214286 0.357143
v 0.500000 0.214286 0.357143
v -0.500000 0.214286 0.214286
v 0.500000 0.214286 0.214286
v -0.500000 0.214286 0.071429
v 0.500000 0.214286 0.071429
v -0.500000 0.214286 -0.071429
v 0.500000 0.214286 -0.071429
v -0.500000 0.214286 -0.214286
v 0.500000 0.214286 -0.214286
v -0.500000 0.214286 -0.357143
v 0.500000 0.214286 -0.357143
v -0.500000 0.214286 -0.500000
v -0.357143 0.214286 -0.500000
v -0.214286 0.214286 -0.500000
v -0.071429 0.214286 -0.500000
v 0.071429 0.214286 -0.500000
v 0.214286 0.214286 -0.500000
v 0.357143 0.214286 -0.500000
v 0.500000 0.214286 -0.500000
v -0.500000 0.357143 0.500000
v -0.357143 0.357143 0.500000
v -0.214286 0.357143 0.500000
v -0.071429 0.357143 0.500000
v 0.071429 0.357143 0.500000
v 0.214286 0.357143 0.500000
v 0.357143 0.357143 0.500000
v 0.500000 0.357143 0.500000
v -0.500000 0.357143 0.357143
v 0.500000 0.357143 0.357143
v -0.500000 0.357143 0.214286
v 0.500000 0.357143 0.214286
v -0.500000 0.357143 0.071429
v 0.500000 0.357143 0.071429
v -0.500000 0.357143 -0.071429
v 0.500000 0.357143 -0.071429
v -0.500000 0.357143 -0.214286
v 0.500000 0.357143 -0.214286
v -0.500000 0.357143 -0.357143
v 0.500000 0.357143 -0.357143
v -0.500000 0.357143 -0.500000
v -0.357143 0.357143 -0.500000
v -0.214286 0.357143 -0.500000
v -0.071429 0.357143 -0.500000
v 0.071429 0.357143 -0.500000
v 0.214286 0.357143 -0.500000
v 0.357143 0.357143 -0.500000
v 0.500000 0.357143 -0.500000
v -0.500000 0.500000 0.500000
v -0.357143 0.500000 0.500000
v -0.214286 0.500000 0.500000
v -0.071429 0.500000 0.500000
v 0.071429 0.500000 0.500000
v 0.214286 0.500000 0.500000
v 0.357143 0.500000 0.500000
v 0.500000 0.500000 0.500000
v -0.500000 0.500000 0.357143
v -0.357143 0.500000 0.357143
v -0.214286 0.500000 0.357143
v -0.071429 0.500000 0.357143
v 0.071429 0.500000 0.357143
v 0.214286 0.500000 0.357143
v 0.357143 0.500000 0.357143
v 0.500000 0.500000 0.357143
v -0.500000 0.500000 0.214286
v -0.357143 0.500000 0.214286
v -0.214286 0.500000 0.214286
v -0.071429 0.500000 0.214286
v 0.071429 0.500000 0.214286
v 0.214286 0.500000 0.214286
v 0.357143 0.500000 0.214286
v 0.500000 0.500000 0.214286
v -0.500000 0.500000 0.071429
v -0.357143 0.500000 0.071429
v -0.214286 0.500000 0.071429
v -0.071429 0.500000 0.071429
v 0.071429 0.500000 0.071429
v 0.214286 0.500000 0.071429
v 0.357143 0.500000 0.071429
v 0.500000 0.500000 0.071429
v -0.500000 0.500000 -0.071429
v -0.357143 0.500000 -0.071429
v -0.214286 0.500000 -0.071429
v -0.071429 0.500000 -0.071429
v 0.071429 0.500000 -0.071429
v 0.214286 0.500000 -0.071429
v 0.357143 0.500000 -0.071429
v 0.500000 0.500000 -0.071429
v -0.500000 0.500000 -0.214286
v -0.357143 0.500000 -0.214286
v -0.214286 0.500000 -0.214286
v -0.071429 0.500000 -0.214286
v 0.071429 0.500000 -0.214286
v 0.214286 0.500000 -0.214286
v 0.357143 0.500000 -0.214286
v 0.500000 0.500000 -0.214286
v -0.500000 0.500000 -0.357143
v -0.357143 0.500000 -0.357143
v -0.214286 0.500000 -0.357143
v -0.071429 0.500000 -0.357143
v 0.071429 0.500000 -0.357143
v 0.214286 0.500000 -0.357143
v 0.357143 0.500000 -0.357143
v 0.500000 0.500000 -0.357143
v -0.500000 0.500000 -0.500000
v -0.357143 0.500000 -0.500000
v -0.214286 0.500000 -0.500000
v -0.071429 0.500000 -0.500000
v 0.071429 0.500000 -0.500000
v 0.214286 0.500000 -0.500000
v 0.357143 0.500000 -0.500000
v 0.500000 0.500000 -0.500000
vn -0.0000 -1.0000 -0.0000
vn -0.0000 -0.0000 1.0000
vn -0.0000 1.0000 -0.0000
vn -0.0000 -0.0000 -1.0000
vn -1.0000 -0.0000 -0.0000
vn 1.0000 -0.0000 -0.0000
s 0
f 9//1 2//1 1//1
f 10//1 3//1 2//1
f 11//1 4//1 3//1
f 12//1 5//1 4//1
f 13//1 6//1 5//1
f 14//1 7//1 6//1
f 15//1 8//1 7//1
f 17//1 10//1 9//1
f 18//1 11//1 10//1
f 19//1 12//1 11//1
f 20//1 13//1 12//1
f 21//1 14//1 13//1
f 22//1 15//1 14//1
f 23//1 16//1 15//1
f 25//1 18//1 17//1
f 26//1 19//1 18//1
f 27//1 20//1 19//1
f 28//1 21//1 20//1
f 29//1 22//1 21//1
f 30//1 23//1 22//1
f 31//1 24//1 23//1
f 33//1 26//1 25//1
f 34//1 27//1 26//1
f 35//1 28//1 27//1
f 36//1 29//1 28//1
f 37//1 30//1 29//1
f 38//1 31//1 30//1
f 39//1 32//1 31//1
f 41//1 34//1 33//1
f 42//1 35//1 34//1
f 43//1 36//1 35//1
f 44//1 37//1 36//1
f 45//1 38//1 37//1
f 46//1 39//1 38//1
f 47//1 40//1 39//1
f 49//1 42//1 41//1
f 50//1 43//1 42//1
f 51//1 44//1 43//1
f 52//1 45//1 44//1
f 53//1 46//1 45//1
f 54//1 47//1 46//1
f 55//1 48//1 47//1
f 57//1 50//1 49//1
f 58//1 51//1 50//1
f 59//1 52//1 51//1
f 60//1 53//1 52//1
f 61//1 54//1 53//1
f 62//1 55//1 54//1
f 63//1 56//1 55//1
f 2//2 65//2 1//2
f 3//2 66//2 2//2
f 4//2 67//2 3//2
f 5//2 68//2 4//2
f 6//2 69//2 5//2
f 7//2 70//2 6//2
f 8//2 71//2 7//2
f 66//2 93//2 65//2
f 67//2 94//2 66//2
f 68//2 95//2 67//2
f 69//2 96//2 68//2
f 70//2 97//2 69//2
f 71//2 98//2 70//2
f 72//2 99//2 71//2
f 94//2 121//2 93//2
f 95//2 122//2 94//2
f 96//2 123//2 95//2
f 97//2 124//2 96//2
f 98//2 125//2 97//2
f 99//2 126//2 98//2
f 100//2 127//2 99//2
f 122//2 149//2 121//2
f 123//2 150//2 122//2
f 124//2 151//2 123//2
f 125//2 152//2 124//2
f 126//2 153//2 125//2
f 127//2 154//2 126//2
f 128//2 155//2 127//2
f 150//2 177//2 149//2
f 151//2 178//2 150//2
f 152//2 179//2 151//2
f 153//2 180//2 152//2
f 154//2 181//2 153//2
f 155//2 182//2 154//2
f 156//2 183//2 155//2
f 178//2 205//2 177//2
f 179//2 206//2 178//2
f 180//2 207//2 179//2
f 181//2 208//2 180//2
f 182//2 209//2 181//2
f 183//2 210//2 182//2
f 184//2 211//2 183//2
f 206//2 233//2 205//2
f 207//2 234//2 206//2
f 208//2 235//2 207//2
f 209//2 236//2 208//2
f 210//2 237//2 209//2
f 211//2 238//2 210//2
f 212//2 239//2 211//2
f 234//3 241//3 233//3
f 235//3 242//3 234//3
f 236//3 243//3 235//3
f 237//3 244//3 236//3
f 238//3 245//3 237//3
f 239//3 246//3 238//3
f 240//3 247//3 239//3
f 242//3 249//3 241//3
f 243//3 250//3 242//3
f 244//3 251//3 243//3
f 245//3 252//3 244//3
f 246//3 253//3 245//3
f 247//3 254//3 246//3
f 248//3 255//3 247//3
f 250//3 257//3 249//3
f 251//3 258//3 250//3
f 252//3 259//3 251//3
f 253//3 260//3 252//3
f 254//3 261//3 253//3
f 255//3 262//3 254//3
f 256//3 263//3 255//3
f 258//3 265//3 257//3
f 259//3 266//3 258//3
f 260//3 267//3 259//3
f 261//3 268//3 260//3
f 262//3 269//3 261//3
f 263//3 270//3 262//3
f 264//3 271//3 263//3
f 266//3 273//3 265//3
f 267//3 274//3 266//3
f 268//3 275//3 267//3
f 269//3 276//3 268//3
f 270//3 277//3 269//3
f 271//3 278//3 270//3
f 272//3 279//3 271//3
f 274//3 281//3 273//3
f 275//3 282//3 274//3
f 276//3 283//3 275//3
f 277//3 284//3 276//3
f 278//3 285//3 277//3
f 279//3 286//3 278//3
f 280//3 287//3 279//3
f 282//3 289//3 281//3
f 283//3 290//3 282//3
f 284//3 291//3 283//3
f 285//3 292//3 284//3
f 286//3 293//3 285//3
f 287//3 294//3 286//3
f 288//3 295//3 287//3
f 85//4 58//4 57//4
f 86//4 59//4 58//4
f 87//4 60//4 59//4
f 88//4 61//4 60//4
f 89//4 62//4 61//4
f 90//4 63//4 62//4
f 91//4 64//4 63//4
f 113//4 86//4 85//4
f 114//4 87//4 86//4
f 115//4 88//4 87//4
f 116//4 89//4 88//4
f 117//4 90//4 89//4
f 118//4 91//4 90//4
f 119//4 92//4 91//4
f 141//4 114//4 113//4
f 142//4 115//4 114//4
f 143//4 116//4 115//4
f 144//4 117//4 116//4
f 145//4 118//4 117//4
f 146//4 119//4 118//4
f 147//4 120//4 119//4
f 169//4 142//4 141//4
f 170//4 143//4 142//4
f 171//4 144//4 143//4
f 172//4 145//4 144//4
f 173//4 146//4 145//4
f 174//4 147//4 146//4
f 175//4 148//4 147//4
f 197//4 170//4 169//4
f 198//4 171//4 170//4
f 199//4 172//4 171//4
f 200//4 173//4 172//4
f 201//4 174//4 173//4
f 202//4 175//4 174//4
f 203//4 176//4 175//4
f 225//4 198//4 197//4
f 226//4 199//4 198//4
f 227//4 200//4 199//4
f 228//4 201//4 200//4
f 229//4 202//4 201//4
f 230//4 203//4 202//4
f 231//4 204//4 203//4
f 289//4 226//4 225//4
f 290//4 227//4 226//4
f 291//4 228//4 227//4
f 292//4 229//4 228//4
f 293//4 230//4 229//4
f 294//4 231//4 230//4
f 295//4 232//4 231//4
f 65//5 9//5 1//5
f 73//5 17//5 9//5
f 75//5 25//5 17//5
f 77//5 33//5 25//5
f 79//5 41//5 33//5
f 81//5 49//5 41//5
f 83//5 57//5 49//5
f 93//5 73//5 65//5
f 101//5 75//5 73//5
f 103//5 77//5 75//5
f 105//5 79//5 77//5
f 107//5 81//5 79//5
f 109//5 83//5 81//5
f 111//5 85//5 83//5
f 121//5 101//5 93//5
f 129//5 103//5 101//5
f 131//5 105//5 103//5
f 133//5 107//5 105//5
f 135//5 109//5 107//5
f 137//5 111//5 109//5
f 139//5 113//5 111//5
f 149//5 129//5 121//5
f 157//5 131//5 129//5
f 159//5 133//5 131//5
f 161//5 135//5 133//5
f 163//5 137//5 135//5
f 165//5 139//5 137//5
f 167//5 141//5 139//5
f 177//5 157//5 149//5
f 185//5 159//5 157//5
f 187//5 161//5 159//5
f 189//5 163//5 161//5
f 191//5 165//5 163//5
f 193//5 167//5 165//5
f 195//5 169//5 167//5
f 205//5 185//5 177//5
f 213//5 187//5 185//5
f 215//5 189//5 187//5
f 217//5 191//5 189//5
f 219//5 193//5 191//5
f 221//5 195//5 193//5
f 223//5 197//5 195//5
f 233//5 213//5 205//5
f 241//5 215//5 213//5
f 249//5 217//5 215//5
f 257//5 219//5 217//5
f 265//5 221//5 219//5
f 273//5 223//5 221//5
f 281//5 225//5 223//5
f 16//6 72//6 8//6
f 24//6 74//6 16//6
f 32//6 76//6 24//6
f 40//6 78//6 32//6
f 48//6 80//6 40//6
f 56//6 82//6 48//6
f 64//6 84//6 56//6
f 74//6 100//6 72//6
f 76//6 102//6 74//6
f 78//6 104//6 76//6
f 80//6 106//6 78//6
f 82//6 108//6 80//6
f 84//6 110//6 82//6
f 92//6 112//6 84//6
f 102//6 128//6 100//6
f 104//6 130//6 102//6
f 106//6 132//6 104//6
f 108//6 134//6 106//6
f 110//6 136//6 108//6
f 112//6 138//6 110//6
f 120//6 140//6 112//6
f 130//6 156//6 128//6
f 132//6 158//6 130//6
f 134//6 160//6 132//6
f 136//6 162//6 134//6
f 138//6 164//6 136//6
f 140//6 166//6 138//6
f 148//6 168//6 140//6
f 158//6 184//6 156//6
f 160//6 186//6 158//6
f 162//6 188//6 160//6
f 164//6 190//6 162//6
f 166//6 192//6 164//6
f 168//6 194//6 166//6
f 176//6 196//6 168//6
f 186//6 212//6 184//6
f 188//6 214//6 186//6
f 190//6 216//6 188//6
f 192//6 218//6 190//6
f 194//6 220//6 192//6
f 196//6 222//6 194//6
f 204//6 224//6 196//6
f 214//6 240//6 212//6
f 216//6 248//6 214//6
f 218//6 256//6 216//6
f 220//6 264//6 218//6
f 222//6 272//6 220//6
f 224//6 280//6 222//6
f 232//6 288//6 224//6
f 9//1 10//1 2//1
f 10//1 11//1 3//1
f 11//1 12//1 4//1
f 12//1 13//1 5//1
f 13//1 14//1 6//1
f 14//1 15//1 7//1
f 15//1 16//1 8//1
f 17//1 18//1 10//1
f 18//1 19//1 11//1
f 19//1 20//1 12//1
f 20//1 21//1 13//1
f 21//1 22//1 14//1
f 22//1 23//1 15//1
f 23//1 24//1 16//1
f 25//1 26//1 18//1
f 26//1 27//1 19//1
f 27//1 28//1 20//1
f 28//1 29//1 21//1
f 29//1 30//1 22//1
f 30//1 31//1 23//1
f 31//1 32//1 24//1
f 33//1 34//1 26//1
f 34//1 35//1 27//1
f 35//1 36//1 28//1
f 36//1 37//1 29//1
f 37//1 38//1 30//1
f 38//1 39//1 31//1
f 39//1 40//1 32//1
f 41//1 42//1 34//1
f 42//1 43//1 35//1
f 43//1 44//1 36//1
f 44//1 45//1 37//1
f 45//1 46//1 38//1
f 46//1 47//1 39//1
f 47//1 48//1 40//1
f 49//1 50//1 42//1
f 50//1 51//1 43//1
f 51//1 52//1 44//1
f 52//1 53//1 45//1
f 53//1 54//1 46//1
f 54//1 55//1 47//1
f 55//1 56//1 48//1
f 57//1 58//1 50//1
f 58//1 59//1 51//1
f 59//1 60//1 52//1
f 60//1 61//1 53//1
f 61//1 62//1 54//1
f 62//1 63//1 55//1
f 63//1 64//1 56//1
f 2//2 66//2 65//2
f 3//2 67//2 66//2
f 4//2 68//2 67//2
f 5//2 69//2 68//2
f 6//2 70//2 69//2
f 7//2 71//2 70//2
f 8//2 72//2 71//2
f 66//2 94//2 93//2
f 67//2 95//2 94//2
f 68//2 96//2 95//2
f 69//2 97//2 96//2
f 70//2 98//2 97//2
f 71//2 99//2 98//2
f 72//2 100//2 99//2
f 94//2 122//2 121//2
f 95//2 123//2 122//2
f 96//2 124//2 123//2
f 97//2 125//2 124//2
f 98//2 126//2 125//2
f 99//2 127//2 126//2
f 100//2 128//2 127//2
f 122//2 150//2 149//2
f 123//2 151//2 150//2
f 124//2 152//2 151//2
f 125//2 153//2 152//2
f 126//2 154//2 153//2
f 127//2 155//2 154//2
f 128//2 156//2 155//2
f 150//2 178//2 177//2
f 151//2 179//2 178//2
f 152//2 180//2 179//2
f 153//2 181//2 180//2
f 154//2 182//2 181//2
f 155//2 183//2 182//2
f 156//2 184//2 183//2
f 178//2 206//2 205//2
f 179//2 207//2 206//2
f 180//2 208//2 207//2
f 181//2 209//2 208//2
f 182//2 210//2 209//2
f 183//2 211//2 210//2
f 184//2 212//2 211//2
f 206//2 234//2 233//2
f 207//2 235//2 234//2
f 208//2 236//2 235//2
f 209//2 237//2 236//2
f 210//2 238//2 237//2
f 211//2 239//2 238//2
f 212//2 240//2 239//2
f 234//3 242//3 241//3
f 235//3 243//3 242//3
f 236//3 244//3 243//3
f 237//3 245//3 244//3
f 238//3 246//3 245//3
f 239//3 247//3 246//3
f 240//3 248//3 247//3
f 242//3 250//3 249//3
f 243//3 251//3 250//3
f 244//3 252//3 251//3
f 245//3 253//3 252//3
f 246//3 254//3 253//3
f 247//3 255//3 254//3
f 248//3 256//3 255//3
f 250//3 258//3 257//3
f 251//3 259//3 258//3
f 252//3 260//3 259//3
f 253//3 261//3 260//3
f 254//3 262//3 261//3
f 255//3 263//3 262//3
f 256//3 264//3 263//3
f 258//3 266//3 265//3
f 259//3 267//3 266//3
f 260//3 268//3 267//3
f 261//3 269//3 268//3
f 262//3 270//3 269//3
f 263//3 271//3 270//3
f 264//3 272//3 271//3
f 266//3 274//3 273//3
f 267//3 275//3 274//3
f 268//3 276//3 275//3
f 269//3 277//3 276//3
f 270//3 278//3 277//3
f 271//3 279//3 278//3
f 272//3 280//3 279//3
f 274//3 282//3 281//3
f 275//3 283//3 282//3
f 276//3 284//3 283//3
f 277//3 285//3 284//3
f 278//3 286//3 285//3
f 279//3 287//3 286//3
f 280//3 288//3 287//3
f 282//3 290//3 289//3
f 283//3 291//3 290//3
f 284//3 292//3 291//3
f 285//3 293//3 292//3
f 286//3 294//3 293//3
f 287//3 295//3 294//3
f 288//3 296//3 295//3
f 85//4 86//4 58//4
f 86//4 87//4 59//4
f 87//4 88//4 60//4
f 88//4 89//4 61//4
f 89//4 90//4 62//4
f 90//4 91//4 63//4
f 91//4 92//4 64//4
f 113//4 114//4 86//4
f 114//4 115//4 87//4
f 115//4 116//4 88//4
f 116//4 117//4 89//4
f 117//4 118//4 90//4
f 118//4 119//4 91//4
f 119//4 120//4 92//4
f 141//4 142//4 114//4
f 142//4 143//4 115//4
f 143//4 144//4 116//4
f 144//4 145//4 117//4
f 145//4 146//4 118//4
f 146//4 147//4 119//4
f 147//4 148//4 120//4
f 169//4 170//4 142//4
f 170//4 171//4 143//4
f 171//4 172//4 144//4
f 172//4 173//4 145//4
f 173//4 174//4 146//4
f 174//4 175//4 147//4
f 175//4 176//4 148//4
f 197//4 198//4 170//4
f 198//4 199//4 171//4
f 199//4 200//4 172//4
f 200//4 201//4 173//4
f 201//4 202//4 174//4
f 202//4 203//4 175//4
f 203//4 204//4 176//4
f 225//4 226//4 198//4
f 226//4 227//4 199//4
f 227//4 228//4 200//4
f 228//4 229//4 201//4
f 229//4 230//4 202//4
f 230//4 231//4 203//4
f 231//4 232//4 204//4
f 289//4 290//4 226//4
f 290//4 291//4 227//4
f 291//4 292//4 228//4
f 292//4 293//4 229//4
f 293//4 294//4 230//4
f 294//4 295//4 231//4
f 295//4 296//4 232//4
f 65//5 73//5 9//5
f 73//5 75//5 17//5
f 75//5 77//5 25//5
f 77//5 79//5 33//5
f 79//5 81//5 41//5
f 81//5 83//5 49//5
f 83//5 85//5 57//5
f 93//5 101//5 73//5
f 101//5 103//5 75//5
f 103//5 105//5 77//5
f 105//5 107//5 79//5
f 107//5 109//5 81//5
f 109//5 111//5 83//5
f 111//5 113//5 85//5
f 121//5 129//5 101//5
f 129//5 131//5 103//5
f 131//5 133//5 105//5
f 133//5 135//5 107//5
f 135//5 137//5 109//5
f 137//5 139//5 111//5
f 139//5 141//5 113//5
f 149//5 157//5 129//5
f 157//5 159//5 131//5
f 159//5 161//5 133//5
f 161//5 163//5 135//5
f 163//5 165//5 137//5
f 165//5 167//5 139//5
f 167//5 169//5 141//5
f 177//5 185//5 157//5
f 185//5 187//5 159//5
f 187//5 189//5 161//5
f 189//5 191//5 163//5
f 191//5 193//5 165//5
f 193//5 195//5 167//5
f 195//5 197//5 169//5
f 205//5 213//5 185//5
f 213//5 215//5 187//5
f 215//5 217//5 189//5
f 217//5 219//5 191//5
f 219//5 221//5 193//5
f 221//5 223//5 195//5
f 223//5 225//5 197//5
f 233//5 241//5 213//5
f 241//5 249//5 215//5
f 249//5 257//5 217//5
f 257//5 265//5 219//5
f 265//5 273//5 221//5
f 273//5 281//5 223//5
f 281//5 289//5 225//5
f 16//6 74//6 72//6
f 24//6 76//6 74//6
f 32//6 78//6 76//6
f 40//6 80//6 78//6
f 48//6 82//6 80//6
f 56//6 84//6 82//6
f 64//6 92//6 84//6
f 74//6 102//6 100//6
f 76//6 104//6 102//6
f 78//6 106//6 104//6
f 80//6 108//6 106//6
f 82//6 110//6 108//6
f 84//6 112//6 110//6
f 92//6 120//6 112//6
f 102//6 130//6 128//6
f 104//6 132//6 130//6
f 106//6 134//6 132//6
f 108//6 136//6 134//6
f 110//6 138//6 136//6
f 112//6 140//6 138//6
f 120//6 148//6 140//6
f 130//6 158//6 156//6
f 132//6 160//6 158//6
f 134//6 162//6 160//6
f 136//6 164//6 162//6
f 138//6 166//6 164//6
f 140//6 168//6 166//6
f 148//6 176//6 168//6
f 158//6 186//6 184//6
f 160//6 188//6 186//6
f 162//6 190//6 188//6
f 164//6 192//6 190//6
f 166//6 194//6 192//6
f 168//6 196//6 194//6
f 176//6 204//6 196//6
f 186//6 214//6 212//6
f 188//6 216//6 214//6
f 190//6 218//6 216//6
f 192//6 220//6 218//6
f 194//6 222//6 220//6
f 196//6 224//6 222//6
f 204//6 232//6 224//6
f 214//6 248//6 240//6
f 216//6 256//6 248//6
f 218//6 264//6 256//6
f 220//6 272//6 264//6
f 222//6 280//6 272//6
f 224//6 288//6 280//6
f 232//6 296//6 288//6
