# Blender 4.0.0
# www.blender.org
mtllib cube_6.mtl
o Cube
v -0.500000 -0.500000 0.500000
v -0.300000 -0.500000 0.500000
v -0.100000 -0.500000 0.500000
v 0.100000 -0.500000 0.500000
v 0.300000 -0.500000 0.500000
v 0.500000 -0.500000 0.500000
v -0.500000 -0.500000 0.300000
v -0.300000 -0.500000 0.300000
v -0.100000 -0.500000 0.300000
v 0.100000 -0.500000 0.300000
v 0.300000 -0.500000 0.300000
v 0.500000 -0.500000 0.300000
v -0.500000 -0.500000 0.100000
v -0.300000 -0.500000 0.100000
v -0.100000 -0.500000 0.100000
v 0.100000 -0.500000 0.100000
v 0.300000 -0.500000 0.100000
v 0.500000 -0.500000 0.100000
v -0.500000 -0.500000 -0.100000
v -0.300000 -0.500000 -0.100000
v -0.100000 -0.500000 -0.100000
v 0.100000 -0.500000 -0.100000
v 0.300000 -0.500000 -0.100000
v 0.500000 -0.500000 -0.100000
v -0.500000 -0.500000 -0.300000
v -0.300000 -0.500000 -0.300000
v -0.100000 -0.500000 -0.300000
v 0.100000 -0.500000 -0.300000
v 0.300000 -0.500000 -0.300000
v 0.500000 -0.500000 -0.300000
v -0.500000 -0.500000 -0.500000
v -0.300000 -0.500000 -0.500000
v -0.100000 -0.500000 -0.500000
v 0.100000 -0.500000 -0.500000
v 0.300000 -0.500000 -0.500000
v 0.500000 -0.500000 -0.500000
v -0.500000 -0.300000 0.500000
v -0.300000 -0.300000 0.500000
v -0.100000 -0.300000 0.500000
v 0.100000 -0.300000 0.500000
v 0.300000 -0.300000 0.500000
v 0.500000 -0.300000 0.500000
v -0.500000 -0.300000 0.300000
v 0.500000 -0.300000 0.300000
v -0.500000 -0.300000 0.100000
v 0.500000 -0.300000 0.100000
v -0.500000 -0.300000 -0.100000
v 0.500000 -0.300000 -0.100000
v -0.500000 -0.300000 -0.300000
v 0.500000 -0.300000 -0.300000
v -0.500000 -0.300000 -0.500000
v -0.300000 -0.300000 -0.500000
v -0.100000 -0.300000 -0.500000
v 0.100000 -0.300000 -0.500000
v 0.300000 -0.300000 -0.500000
v 0.500000 -0.300000 -0.500000
v -0.500000 -0.100000 0.500000
v -0.300000 -0.100000 0.500000
v -0.100000 -0.100000 0.500000
v 0.100000 -0.100000 0.500000
v 0.300000 -0.100000 0.500000
v 0.500000 -0.100000 0.500000
v -0.500000 -0.100000 0.300000
v 0.500000 -0.100000 0.300000
v -0.500000 -0.100000 0.100000
v 0.500000 -0.100000 0.100000
v -0.500000 -0.100000 -0.100000
v 0.500000 -0.100000 -0.100000
v -0.500000 -0.100000 -0.300000
v 0.500000 -0.100000 -0.300000
v -0.500000 -0.100000 -0.500000
v -0.300000 -0.100000 -0.500000
v -0.100000 -0.100000 -0.500000
v 0.100000 -0.100000 -0.500000
v 0.300000 -0.100000 -0.500000
v 0.500000 -0.100000 -0.500000
v -0.500000 0.100000 0.500000
v -0.300000 0.100000 0.500000
v -0.100000 0.100000 0.500000
v 0.100000 0.100000 0.500000
v 0.300000 0.100000 0.500000
v 0.500000 0.100000 0.500000
v -0.500000 0.100000 0.300000
v 0.500000 0.100000 0.300000
v -0.500000 0.100000 0.100000
v 0.500000 0.100000 0.100000
v -0.500000 0.100000 -0.100000
v 0.500000 0.100000 -0.100000
v -0.500000 0.100000 -0.300000
v 0.500000 0.100000 -0.300000
v -0.500000 0.100000 -0.500000
v -0.300000 0.100000 -0.500000
v -0.100000 0.100000 -0.500000
v 0.100000 0.100000 -0.500000
v 0.300000 0.100000 -0.500000
v 0.500000 0.100000 -0.500000
v -0.500000 0.300000 0.500000
v -0.300000 0.300000 0.500000
v -0.100000 0.300000 0.500000
v 0.100000 0.300000 0.500000
v 0.300000 0.300000 0.500000
v 0.500000 0.300000 0.500000
v -0.500000 0.300000 0.300000
v 0.500000 0.300000 0.300000
v -0.500000 0.300000 0.100000
v 0.500000 0.300000 0.100000
v -0.500000 0.300000 -0.100000
v 0.500000 0.300000 -0.100000
v -0.500000 0.300000 -0.300000
v 0.500000 0.300000 -0.300000
v -0.500000 0.300000 -0.500000
v -0.300000 0.300000 -0.500000
v -0.100000 0.300000 -0.500000
v 0.100000 0.300000 -0.500000
v 0.300000 0.300000 -0.500000
v 0.500000 0.300000 -0.500000
v -0.500000 0.500000 0.500000
v -0.300000 0.500000 0.500000
v -0.100000 0.500000 0.500000
v 0.100000 0.500000 0.500000
v 0.300000 0.500000 0.500000
v 0.500000 0.500000 0.500000
v -0.500000 0.500000 0.300000
v -0.300000 0.500000 0.300000
v -0.100000 0.500000 0.300000
v 0.100000 0.500000 0.300000
v 0.300000 0.500000 0.300000
v 0.500000 0.500000 0.300000
v -0.500000 0.500000 0.100000
v -0.300000 0.500000 0.100000
v -0.100000 0.500000 0.100000
v 0.100000 0.500000 0.100000
v 0.300000 0.500000 0.100000
v 0.500000 0.500000 0.100000
v -0.500000 0.500000 -0.100000
v -0.300000 0.500000 -0.100000
v -0.100000 0.500000 -0.100000
v 0.100000 0.500000 -0.100000
v 0.300000 0.500000 -0.100000
v 0.500000 0.500000 -0.100000
v -0.500000 0.500000 -0.300000
v -0.300000 0.500000 -0.300000
v -0.100000 0.500000 -0.300000
v 0.100000 0.500000 -0.300000
v 0.300000 0.500000 -0.300000
v 0.500000 0.500000 -0.300000
v -0.500000 0.500000 -0.500000
v -0.300000 0.500000 -0.500000
v -0.100000 0.500000 -0.500000
v 0.100000 0.500000 -0.500000
v 0.300000 0.500000 -0.500000
v 0.500000 0.500000 -0.500000
vn -0.0000 -1.0000 -0.0000
vn -0.0000 -0.0000 1.0000
vn -0.0000 1.0000 -0.0000
vn -0.0000 -0.0000 -1.0000
vn -1.0000 -0.0000 -0.0000
vn 1.0000 -0.0000 -0.0000
s 0
f 7//1 2//1 1//1
f 8//1 3//1 2//1
f 9//1 4//1 3//1
f 10//1 5//1 4//1
f 11//1 6//1 5//1
f 13//1 8//1 7//1
f 14//1 9//1 8//1
f 15//1 10//1 9//1
f 16//1 11//1 10//1
f 17//1 12//1 11//1
f 19//1 14//1 13//1
f 20//1 15//1 14//1
f 21//1 16//1 15//1
f 22//1 17//1 16//1
f 23//1 18//1 17//1
f 25//1 20//1 19//1
f 26//1 21//1 20//1
f 27//1 22//1 21//1
f 28//1 23//1 22//1
f 29//1 24//1 23//1
f 31//1 26//1 25//1
f 32//1 27//1 26//1
f 33//1 28//1 27//1
f 34//1 29//1 28//1
f 35//1 30//1 29//1
f 2//2 37//2 1//2
f 3//2 38//2 2//2
f 4//2 39//2 3//2
f 5//2 40//2 4//2
f 6//2 41//2 5//2
f 38//2 57//2 37//2
f 39//2 58//2 38//2
f 40//2 59//2 39//2
f 41//2 60//2 40//2
f 42//2 61//2 41//2
f 58//2 77//2 57//2
f 59//2 78//2 58//2
f 60//2 79//2 59//2
f 61//2 80//2 60//2
f 62//2 81//2 61//2
f 78//2 97//2 77//2
f 79//2 98//2 78//2
f 80//2 99//2 79//2
f 81//2 100//2 80//2
f 82//2 101//2 81//2
f 98//2 117//2 97//2
f 99//2 118//2 98//2
f 100//2 119//2 99//2
f 101//2 120//2 100//2
f 102//2 121//2 101//2
f 118//3 123//3 117//3
f 119//3 124//3 118//3
f 120//3 125//3 119//3
f 121//3 126//3 120//3
f 122//3 127//3 121//3
f 124//3 129//3 123//3
f 125//3 130//3 124//3
f 126//3 131//3 125//3
f 127//3 132//3 126//3
f 128//3 133//3 127//3
f 130//3 135//3 129//3
f 131//3 136//3 130//3
f 132//3 137//3 131//3
f 133//3 138//3 132//3
f 134//3 139//3 133//3
f 136//3 141//3 135//3
f 137//3 142//3 136//3
f 138//3 143//3 137//3
f 139//3 144//3 138//3
f 140//3 145//3 139//3
f 142//3 147//3 141//3
f 143//3 148//3 142//3
f 144//3 149//3 143//3
f 145//3 150//3 144//3
f 146//3 151//3 145//3
f 51//4 32//4 31//4
f 52//4 33//4 32//4
f 53//4 34//4 33//4
f 54//4 35//4 34//4
f 55//4 36//4 35//4
f 71//4 52//4 51//4
f 72//4 53//4 52//4
f 73//4 54//4 53//4
f 74//4 55//4 54//4
f 75//4 56//4 55//4
f 91//4 72//4 71//4
f 92//4 73//4 72//4
f 93//4 74//4 73//4
f 94//4 75//4 74//4
f 95//4 76//4 75//4
f 111//4 92//4 91//4
f 112//4 93//4 92//4
f 113//4 94//4 93//4
f 114//4 95//4 94//4
f 115//4 96//4 95//4
f 147//4 112//4 111//4
f 148//4 113//4 112//4
f 149//4 114//4 113//4
f 150//4 115//4 114//4
f 151//4 116//4 115//4
f 37//5 7//5 1//5
f 43//5 13//5 7//5
f 45//5 19//5 13//5
f 47//5 25//5 19//5
f 49//5 31//5 25//5
f 57//5 43//5 37//5
f 63//5 45//5 43//5
f 65//5 47//5 45//5
f 67//5 49//5 47//5
f 69//5 51//5 49//5
f 77//5 63//5 57//5
f 83//5 65//5 63//5
f 85//5 67//5 65//5
f 87//5 69//5 67//5
f 89//5 71//5 69//5
f 97//5 83//5 77//5
f 103//5 85//5 83//5
f 105//5 87//5 85//5
f 107//5 89//5 87//5
f 109//5 91//5 89//5
f 117//5 103//5 97//5
f 123//5 105//5 103//5
f 129//5 107//5 105//5
f 135//5 109//5 107//5
f 141//5 111//5 109//5
f 12//6 42//6 6//6
f 18//6 44//6 12//6
f 24//6 46//6 18//6
f 30//6 48//6 24//6
f 36//6 50//6 30//6
f 44//6 62//6 42//6
f 46//6 64//6 44//6
f 48//6 66//6 46//6
f 50//6 68//6 48//6
f 56//6 70//6 50//6
f 64//6 82//6 62//6
f 66//6 84//6 64//6
f 68//6 86//6 66//6
f 70//6 88//6 68//6
f 76//6 90//6 70//6
f 84//6 102//6 82//6
f 86//6 104//6 84//6
f 88//6 106//6 86//6
f 90//6 108//6 88//6
f 96//6 110//6 90//6
f 104//6 122//6 102//6
f 106//6 128//6 104//6
f 108//6 134//6 106//6
f 110//6 140//6 108//6
f 116//6 146//6 110//6
f 7//1 8//1 2//1
f 8//1 9//1 3//1
f 9//1 10//1 4//1
f 10//1 11//1 5//1
f 11//1 12//1 6//1
f 13//1 14//1 8//1
f 14//1 15//1 9//1
f 15//1 16//1 10//1
f 16//1 17//1 11//1
f 17//1 18//1 12//1
f 19//1 20//1 14//1
f 20//1 21//1 15//1
f 21//1 22//1 16//1
f 22//1 23//1 17//1
f 23//1 24//1 18//1
f 25//1 26//1 20//1
f 26//1 27//1 21//1
f 27//1 28//1 22//1
f 28//1 29//1 23//1
f 29//1 30//1 24//1
f 31//1 32//1 26//1
f 32//1 33//1 27//1
f 33//1 34//1 28//1
f 34//1 35//1 29//1
f 35//1 36//1 30//1
f 2//2 38//2 37//2
f 3//2 39//2 38//2
f 4//2 40//2 39//2
f 5//2 41//2 40//2
f 6//2 42//2 41//2
f 38//2 58//2 57//2
f 39//2 59//2 58//2
f 40//2 60//2 59//2
f 41//2 61//2 60//2
f 42//2 62//2 61//2
f 58//2 78//2 77//2
f 59//2 79//2 78//2
f 60//2 80//2 79//2
f 61//2 81//2 80//2
f 62//2 82//2 81//2
f 78//2 98//2 97//2
f 79//2 99//2 98//2
f 80//2 100//2 99//2
f 81//2 101//2 100//2
f 82//2 102//2 101//2
f 98//2 118//2 117//2
f 99//2 119//2 118//2
f 100//2 120//2 119//2
f 101//2 121//2 120//2
f 102//2 122//2 121//2
f 118//3 124//3 123//3
f 119//3 125//3 124//3
f 120//3 126//3 125//3
f 121//3 127//3 126//3
f 122//3 128//3 127//3
f 124//3 130//3 129//3
f 125//3 131//3 130//3
f 126//3 132//3 131//3
f 127//3 133//3 132//3
f 128//3 134//3 133//3
f 130//3 136//3 135//3
f 131//3 137//3 136//3
f 132//3 138//3 137//3
f 133//3 139//3 138//3
f 134//3 140//3 139//3
f 136//3 142//3 141//3
f 137//3 143//3 142//3
f 138//3 144//3 143//3
f 139//3 145//3 144//3
f 140//3 146//3 145//3
f 142//3 148//3 147//3
f 143//3 149//3 148//3
f 144//3 150//3 149//3
f 145//3 151//3 150//3
f 146//3 152//3 151//3
f 51//4 52//4 32//4
f 52//4 53//4 33//4
f 53//4 54//4 34//4
f 54//4 55//4 35//4
f 55//4 56//4 36//4
f 71//4 72//4 52//4
f 72//4 73//4 53//4
f 73//4 74//4 54//4
f 74//4 75//4 55//4
f 75//4 76//4 56//4
f 91//4 92//4 72//4
f 92//4 93//4 73//4
f 93//4 94//4 74//4
f 94//4 95//4 75//4
f 95//4 96//4 76//4
f 111//4 112//4 92//4
f 112//4 113//4 93//4
f 113//4 114//4 94//4
f 114//4 115//4 95//4
f 115//4 116//4 96//4
f 147//4 148//4 112//4
f 148//4 149//4 113//4
f 149//4 150//4 114//4
f 150//4 151//4 115//4
f 151//4 152//4 116//4
f 37//5 43//5 7//5
f 43//5 45//5 13//5
f 45//5 47//5 19//5
f 47//5 49//5 25//5
f 49//5 51//5 31//5
f 57//5 63//5 43//5
f 63//5 65//5 45//5
f 65//5 67//5 47//5
f 67//5 69//5 49//5
f 69//5 71//5 51//5
f 77//5 83//5 63//5
f 83//5 85//5 65//5
f 85//5 87//5 67//5
f 87//5 89//5 69//5
f 89//5 91//5 71//5
f 97//5 103//5 83//5
f 103//5 105//5 85//5
f 105//5 107//5 87//5
f 107//5 109//5 89//5
f 109//5 111//5 91//5
f 117//5 123//5 103//5
f 123//5 129//5 105//5
f 129//5 135//5 107//5
f 135//5 141//5 109//5
f 141//5 147//5 111//5
f 12//6 44//6 42//6
f 18//6 46//6 44//6
f 24//6 48//6 46//6
f 30//6 50//6 48//6
f 36//6 56//6 50//6
f 44//6 64//6 62//6
f 46//6 66//6 64//6
f 48//6 68//6 66//6
f 50//6 70//6 68//6
f 56//6 76//6 70//6
f 64//6 84//6 82//6
f 66//6 86//6 84//6
f 68//6 88//6 86//6
f 70//6 90//6 88//6
f 76//6 96//6 90//6
f 84//6 104//6 102//6
f 86//6 106//6 104//6
f 88//6 108//6 106//6
f 90//6 110//6 108//6
f 96//6 116//6 110//6
f 104//6 128//6 122//6
f 106//6 134//6 128//6
f 108//6 140//6 134//6
f 110//6 146//6 140//6
f 116//6 152//6 146//6
