# Blender 4.0.2
# www.blender.org
o Cube
v 0.500000 -0.000000 0.500000
v 0.490393 0.097545 0.500000
v 0.461940 0.191342 0.500000
v 0.415735 0.277785 0.500000
v 0.353553 0.353553 0.500000
v 0.277785 0.415735 0.500000
v 0.191342 0.461940 0.500000
v 0.097545 0.490393 0.500000
v 0.000000 0.500000 0.500000
v -0.097545 0.490393 0.500000
v -0.191342 0.461940 0.500000
v -0.277785 0.415735 0.500000
v -0.353553 0.353553 0.500000
v -0.415735 0.277785 0.500000
v -0.461940 0.191342 0.500000
v -0.490393 0.097545 0.500000
v -0.500000 -0.000000 0.500000
v -0.490393 -0.097545 0.500000
v -0.461940 -0.191342 0.500000
v -0.415735 -0.277785 0.500000
v -0.353553 -0.353554 0.500000
v -0.277785 -0.415735 0.500000
v -0.191341 -0.461940 0.500000
v -0.097545 -0.490393 0.500000
v 0.000000 -0.500000 0.500000
v 0.097546 -0.490393 0.500000
v 0.191342 -0.461940 0.500000
v 0.277786 -0.415734 0.500000
v 0.353554 -0.353553 0.500000
v 0.415735 -0.277785 0.500000
v 0.461940 -0.191341 0.500000
v 0.490393 -0.097544 0.500000
v 0.500000 0.000000 -0.500000
v 0.490393 0.097545 -0.500000
v 0.461940 0.191342 -0.500000
v 0.415735 0.277785 -0.500000
v 0.353553 0.353553 -0.500000
v 0.277785 0.415735 -0.500000
v 0.191342 0.461940 -0.500000
v 0.097545 0.490393 -0.500000
v 0.000000 0.500000 -0.500000
v -0.097545 0.490393 -0.500000
v -0.191342 0.461940 -0.500000
v -0.277785 0.415735 -0.500000
v -0.353553 0.353553 -0.500000
v -0.415735 0.277785 -0.500000
v -0.461940 0.191342 -0.500000
v -0.490393 0.097545 -0.500000
v -0.500000 -0.000000 -0.500000
v -0.490393 -0.097545 -0.500000
v -0.461940 -0.191342 -0.500000
v -0.415735 -0.277785 -0.500000
v -0.353553 -0.353554 -0.500000
v -0.277785 -0.415735 -0.500000
v -0.191341 -0.461940 -0.500000
v -0.097545 -0.490393 -0.500000
v 0.000000 -0.500000 -0.500000
v 0.097546 -0.490393 -0.500000
v 0.191342 -0.461940 -0.500000
v 0.277786 -0.415734 -0.500000
v 0.353554 -0.353553 -0.500000
v 0.415735 -0.277785 -0.500000
v 0.461940 -0.191341 -0.500000
v 0.490393 -0.097544 -0.500000
vn -0.0000 -0.0000 1.0000
vn 0.9952 0.0980 -0.0000
vn 0.9569 0.2903 -0.0000
vn 0.8819 0.4714 -0.0000
vn 0.7730 0.6344 -0.0000
vn 0.6344 0.7730 -0.0000
vn 0.4714 0.8819 -0.0000
vn 0.2903 0.9569 -0.0000
vn 0.0980 0.9952 -0.0000
vn -0.0980 0.9952 -0.0000
vn -0.2903 0.9569 -0.0000
vn -0.4714 0.8819 -0.0000
vn -0.6344 0.7730 -0.0000
vn -0.7730 0.6344 -0.0000
vn -0.8819 0.4714 -0.0000
vn -0.9569 0.2903 -0.0000
vn -0.9952 0.0980 -0.0000
vn -0.9952 -0.0980 -0.0000
vn -0.9569 -0.2903 -0.0000
vn -0.8819 -0.4714 -0.0000
vn -0.7730 -0.6344 -0.0000
vn -0.6344 -0.7730 -0.0000
vn -0.4714 -0.8819 -0.0000
vn -0.2903 -0.9569 -0.0000
vn -0.0980 -0.9952 -0.0000
vn 0.0980 -0.9952 -0.0000
vn 0.2903 -0.9569 -0.0000
vn 0.4714 -0.8819 -0.0000
vn 0.6344 -0.7730 -0.0000
vn 0.7730 -0.6344 -0.0000
vn 0.8819 -0.4714 -0.0000
vn 0.9569 -0.2903 -0.0000
vn 0.9952 -0.0980 -0.0000
vn -0.0000 -0.0000 -1.0000
s 0
f 1//1 2//1 3//1 4//1 5//1 6//1 7//1 8//1 9//1 10//1 11//1 12//1 13//1 14//1 15//1 16//1 17//1 18//1 19//1 20//1 21//1 22//1 23//1 24//1 25//1 26//1 27//1 28//1 29//1 30//1 31//1 32//1
f 1//2 33//2 34//2 2//2
f 2//3 34//3 35//3 3//3
f 3//4 35//4 36//4 4//4
f 4//5 36//5 37//5 5//5
f 5//6 37//6 38//6 6//6
f 6//7 38//7 39//7 7//7
f 7//8 39//8 40//8 8//8
f 8//9 40//9 41//9 9//9
f 9//10 41//10 42//10 10//10
f 10//11 42//11 43//11 11//11
f 11//12 43//12 44//12 12//12
f 12//13 44//13 45//13 13//13
f 13//14 45//14 46//14 14//14
f 14//15 46//15 47//15 15//15
f 15//16 47//16 48//16 16//16
f 16//17 48//17 49//17 17//17
f 17//18 49//18 50//18 18//18
f 18//19 50//19 51//19 19//19
f 19//20 51//20 52//20 20//20
f 20//21 52//21 53//21 21//21
f 21//22 53//22 54//22 22//22
f 22//23 54//23 55//23 23//23
f 23//24 55//24 56//24 24//24
f 24//25 56//25 57//25 25//25
f 25//26 57//26 58//26 26//26
f 26//27 58//27 59//27 27//27
f 27//28 59//28 60//28 28//28
f 28//29 60//29 61//29 29//29
f 29//30 61//30 62//30 30//30
f 30//31 62//31 63//31 31//31
f 31//32 63//32 64//32 32//32
f 32//33 64//33 33//33 1//33
f 64//34 63//34 62//34 61//34 60//34 59//34 58//34 57//34 56//34 55//34 54//34 53//34 52//34 51//34 50//34 49//34 48//34 47//34 46//34 45//34 44//34 43//34 42//34 41//34 40//34 39//34 38//34 37//34 36//34 35//34 34//34 33//34
