# Blender 4.0.0
# Blender 4.0.0
# www.blender.org
mtllib cylinder.mtl
o Cube
v 0.000000 1.000000 0.000000
v 0.166667 1.000000 0.000000
v 0.163464 1.000000 -0.032515
v 0.153980 1.000000 -0.063781
v 0.138578 1.000000 -0.092595
v 0.117851 1.000000 -0.117851
v 0.092595 1.000000 -0.138578
v 0.063781 1.000000 -0.153980
v 0.032515 1.000000 -0.163464
v 0.000000 1.000000 -0.166667
v -0.032515 1.000000 -0.163464
v -0.063781 1.000000 -0.153980
v -0.092595 1.000000 -0.138578
v -0.117851 1.000000 -0.117851
v -0.138578 1.000000 -0.092595
v -0.153980 1.000000 -0.063781
v -0.163464 1.000000 -0.032515
v -0.166667 1.000000 0.000000
v -0.163464 1.000000 0.032515
v -0.153980 1.000000 0.063781
v -0.138578 1.000000 0.092595
v -0.117851 1.000000 0.117851
v -0.092595 1.000000 0.138578
v -0.063780 1.000000 0.153980
v -0.032515 1.000000 0.163464
v 0.000000 1.000000 0.166667
v 0.032515 1.000000 0.163464
v 0.063781 1.000000 0.153980
v 0.092595 1.000000 0.138578
v 0.117851 1.000000 0.117851
v 0.138578 1.000000 0.092595
v 0.153980 1.000000 0.063780
v 0.163464 1.000000 0.032515
v 0.333333 1.000000 0.000000
v 0.326928 1.000000 -0.065030
v 0.307960 1.000000 -0.127561
v 0.277157 1.000000 -0.185190
v 0.235702 1.000000 -0.235702
v 0.185190 1.000000 -0.277157
v 0.127561 1.000000 -0.307960
v 0.065030 1.000000 -0.326928
v 0.000000 1.000000 -0.333333
v -0.065030 1.000000 -0.326928
v -0.127561 1.000000 -0.307960
v -0.185190 1.000000 -0.277157
v -0.235702 1.000000 -0.235702
v -0.277157 1.000000 -0.185190
v -0.307960 1.000000 -0.127561
v -0.326928 1.000000 -0.065030
v -0.333333 1.000000 0.000000
v -0.326928 1.000000 0.065030
v -0.307960 1.000000 0.127561
v -0.277156 1.000000 0.185190
v -0.235702 1.000000 0.235702
v -0.185190 1.000000 0.277157
v -0.127561 1.000000 0.307960
v -0.065030 1.000000 0.326928
v 0.000000 1.000000 0.333333
v 0.065030 1.000000 0.326928
v 0.127561 1.000000 0.307960
v 0.185190 1.000000 0.277156
v 0.235703 1.000000 0.235702
v 0.277157 1.000000 0.185190
v 0.307960 1.000000 0.127561
v 0.326929 1.000000 0.065030
v 0.500000 1.000000 0.000000
v 0.490393 1.000000 -0.097545
v 0.461940 1.000000 -0.191342
v 0.415735 1.000000 -0.277785
v 0.353553 1.000000 -0.353553
v 0.277785 1.000000 -0.415735
v 0.191342 1.000000 -0.461940
v 0.097545 1.000000 -0.490393
v 0.000000 1.000000 -0.500000
v -0.097545 1.000000 -0.490393
v -0.191342 1.000000 -0.461940
v -0.277785 1.000000 -0.415735
v -0.353553 1.000000 -0.353553
v -0.415735 1.000000 -0.277785
v -0.461940 1.000000 -0.191342
v -0.490393 1.000000 -0.097545
v -0.500000 1.000000 0.000000
v -0.490393 1.000000 0.097545
v -0.461940 1.000000 0.191342
v -0.415735 1.000000 0.277785
v -0.353553 1.000000 0.353554
v -0.277785 1.000000 0.415735
v -0.191341 1.000000 0.461940
v -0.097545 1.000000 0.490393
v 0.000000 1.000000 0.500000
v 0.097546 1.000000 0.490393
v 0.191342 1.000000 0.461940
v 0.277786 1.000000 0.415734
v 0.353554 1.000000 0.353553
v 0.415735 1.000000 0.277785
v 0.461940 1.000000 0.191341
v 0.490393 1.000000 0.097544
v 0.666667 1.000000 0.000000
v 0.653857 1.000000 -0.130060
v 0.615920 1.000000 -0.255122
v 0.554313 1.000000 -0.370380
v 0.471405 1.000000 -0.471405
v 0.370380 1.000000 -0.554313
v 0.255122 1.000000 -0.615920
v 0.130060 1.000000 -0.653857
v 0.000000 1.000000 -0.666667
v -0.130060 1.000000 -0.653857
v -0.255122 1.000000 -0.615920
v -0.370380 1.000000 -0.554313
v -0.471405 1.000000 -0.471405
v -0.554313 1.000000 -0.370380
v -0.615920 1.000000 -0.255122
v -0.653857 1.000000 -0.130060
v -0.666667 1.000000 0.000000
v -0.653857 1.000000 0.130060
v -0.615920 1.000000 0.255123
v -0.554313 1.000000 0.370380
v -0.471404 1.000000 0.471405
v -0.370380 1.000000 0.554313
v -0.255122 1.000000 0.615920
v -0.130060 1.000000 0.653857
v 0.000001 1.000000 0.666667
v 0.130061 1.000000 0.653857
v 0.255123 1.000000 0.615919
v 0.370381 1.000000 0.554313
v 0.471405 1.000000 0.471404
v 0.554314 1.000000 0.370379
v 0.615920 1.000000 0.255121
v 0.653857 1.000000 0.130059
v 0.833333 1.000000 0.000000
v 0.817321 1.000000 -0.162575
v 0.769900 1.000000 -0.318903
v 0.692891 1.000000 -0.462975
v 0.589256 1.000000 -0.589256
v 0.462975 1.000000 -0.692891
v 0.318903 1.000000 -0.769900
v 0.162575 1.000000 -0.817321
v 0.000000 1.000000 -0.833333
v -0.162575 1.000000 -0.817321
v -0.318903 1.000000 -0.769900
v -0.462975 1.000000 -0.692891
v -0.589256 1.000000 -0.589256
v -0.692891 1.000000 -0.462975
v -0.769900 1.000000 -0.318903
v -0.817321 1.000000 -0.162575
v -0.833333 1.000000 0.000000
v -0.817321 1.000000 0.162576
v -0.769899 1.000000 0.318903
v -0.692891 1.000000 0.462976
v -0.589255 1.000000 0.589256
v -0.462975 1.000000 0.692892
v -0.318902 1.000000 0.769900
v -0.162575 1.000000 0.817321
v 0.000001 1.000000 0.833333
v 0.162576 1.000000 0.817321
v 0.318904 1.000000 0.769899
v 0.462976 1.000000 0.692891
v 0.589256 1.000000 0.589255
v 0.692892 1.000000 0.462974
v 0.769900 1.000000 0.318902
v 0.817321 1.000000 0.162574
v 1.000000 1.000000 0.000000
v 0.980785 1.000000 -0.195090
v 0.923880 1.000000 -0.382683
v 0.831470 1.000000 -0.555570
v 0.707107 1.000000 -0.707107
v 0.555570 1.000000 -0.831470
v 0.382683 1.000000 -0.923880
v 0.195090 1.000000 -0.980785
v 0.000000 1.000000 -1.000000
v -0.195090 1.000000 -0.980785
v -0.382683 1.000000 -0.923880
v -0.555570 1.000000 -0.831470
v -0.707107 1.000000 -0.707107
v -0.831470 1.000000 -0.555570
v -0.923880 1.000000 -0.382683
v -0.980785 1.000000 -0.195090
v -1.000000 1.000000 0.000000
v -0.980785 1.000000 0.195091
v -0.923879 1.000000 0.382684
v -0.831469 1.000000 0.555571
v -0.707106 1.000000 0.707107
v -0.555570 1.000000 0.831470
v -0.382683 1.000000 0.923880
v -0.195089 1.000000 0.980785
v 0.000001 1.000000 1.000000
v 0.195091 1.000000 0.980785
v 0.382684 1.000000 0.923879
v 0.555571 1.000000 0.831469
v 0.707108 1.000000 0.707106
v 0.831470 1.000000 0.555569
v 0.923880 1.000000 0.382682
v 0.980786 1.000000 0.195089
v 1.000000 0.666667 0.000000
v 0.980785 0.666667 -0.195090
v 0.923880 0.666667 -0.382683
v 0.831470 0.666667 -0.555570
v 0.707107 0.666667 -0.707107
v 0.555570 0.666667 -0.831470
v 0.382683 0.666667 -0.923880
v 0.195090 0.666667 -0.980785
v 0.000000 0.666667 -1.000000
v -0.195090 0.666667 -0.980785
v -0.382683 0.666667 -0.923880
v -0.555570 0.666667 -0.831470
v -0.707107 0.666667 -0.707107
v -0.831470 0.666667 -0.555570
v -0.923880 0.666667 -0.382683
v -0.980785 0.666667 -0.195090
v -1.000000 0.666667 0.000000
v -0.980785 0.666667 0.195091
v -0.923879 0.666667 0.382684
v -0.831469 0.666667 0.555571
v -0.707106 0.666667 0.707107
v -0.555570 0.666667 0.831470
v -0.382683 0.666667 0.923880
v -0.195089 0.666667 0.980785
v 0.000001 0.666667 1.000000
v 0.195091 0.666667 0.980785
v 0.382684 0.666667 0.923879
v 0.555571 0.666667 0.831469
v 0.707108 0.666667 0.707106
v 0.831470 0.666667 0.555569
v 0.923880 0.666667 0.382682
v 0.980786 0.666667 0.195089
v 1.000000 0.333333 0.000000
v 0.980785 0.333333 -0.195090
v 0.923880 0.333333 -0.382683
v 0.831470 0.333333 -0.555570
v 0.707107 0.333333 -0.707107
v 0.555570 0.333333 -0.831470
v 0.382683 0.333333 -0.923880
v 0.195090 0.333333 -0.980785
v 0.000000 0.333333 -1.000000
v -0.195090 0.333333 -0.980785
v -0.382683 0.333333 -0.923880
v -0.555570 0.333333 -0.831470
v -0.707107 0.333333 -0.707107
v -0.831470 0.333333 -0.555570
v -0.923880 0.333333 -0.382683
v -0.980785 0.333333 -0.195090
v -1.000000 0.333333 0.000000
v -0.980785 0.333333 0.195091
v -0.923879 0.333333 0.382684
v -0.831469 0.333333 0.555571
v -0.707106 0.333333 0.707107
v -0.555570 0.333333 0.831470
v -0.382683 0.333333 0.923880
v -0.195089 0.333333 0.980785
v 0.000001 0.333333 1.000000
v 0.195091 0.333333 0.980785
v 0.382684 0.333333 0.923879
v 0.555571 0.333333 0.831469
v 0.707108 0.333333 0.707106
v 0.831470 0.333333 0.555569
v 0.923880 0.333333 0.382682
v 0.980786 0.333333 0.195089
v 1.000000 0.000000 0.000000
v 0.980785 0.000000 -0.195090
v 0.923880 0.000000 -0.382683
v 0.831470 0.000000 -0.555570
v 0.707107 0.000000 -0.707107
v 0.555570 0.000000 -0.831470
v 0.382683 0.000000 -0.923880
v 0.195090 0.000000 -0.980785
v 0.000000 0.000000 -1.000000
v -0.195090 0.000000 -0.980785
v -0.382683 0.000000 -0.923880
v -0.555570 0.000000 -0.831470
v -0.707107 0.000000 -0.707107
v -0.831470 0.000000 -0.555570
v -0.923880 0.000000 -0.382683
v -0.980785 0.000000 -0.195090
v -1.000000 0.000000 0.000000
v -0.980785 0.000000 0.195091
v -0.923879 0.000000 0.382684
v -0.831469 0.000000 0.555571
v -0.707106 0.000000 0.707107
v -0.555570 0.000000 0.831470
v -0.382683 0.000000 0.923880
v -0.195089 0.000000 0.980785
v 0.000001 0.000000 1.000000
v 0.195091 0.000000 0.980785
v 0.382684 0.000000 0.923879
v 0.555571 0.000000 0.831469
v 0.707108 0.000000 0.707106
v 0.831470 0.000000 0.555569
v 0.923880 0.000000 0.382682
v 0.980786 0.000000 0.195089
v 1.000000 -0.333333 0.000000
v 0.980785 -0.333333 -0.195090
v 0.923880 -0.333333 -0.382683
v 0.831470 -0.333333 -0.555570
v 0.707107 -0.333333 -0.707107
v 0.555570 -0.333333 -0.831470
v 0.382683 -0.333333 -0.923880
v 0.195090 -0.333333 -0.980785
v 0.000000 -0.333333 -1.000000
v -0.195090 -0.333333 -0.980785
v -0.382683 -0.333333 -0.923880
v -0.555570 -0.333333 -0.831470
v -0.707107 -0.333333 -0.707107
v -0.831470 -0.333333 -0.555570
v -0.923880 -0.333333 -0.382683
v -0.980785 -0.333333 -0.195090
v -1.000000 -0.333333 0.000000
v -0.980785 -0.333333 0.195091
v -0.923879 -0.333333 0.382684
v -0.831469 -0.333333 0.555571
v -0.707106 -0.333333 0.707107
v -0.555570 -0.333333 0.831470
v -0.382683 -0.333333 0.923880
v -0.195089 -0.333333 0.980785
v 0.000001 -0.333333 1.000000
v 0.195091 -0.333333 0.980785
v 0.382684 -0.333333 0.923879
v 0.555571 -0.333333 0.831469
v 0.707108 -0.333333 0.707106
v 0.831470 -0.333333 0.555569
v 0.923880 -0.333333 0.382682
v 0.980786 -0.333333 0.195089
v 1.000000 -0.666667 0.000000
v 0.980785 -0.666667 -0.195090
v 0.923880 -0.666667 -0.382683
v 0.831470 -0.666667 -0.555570
v 0.707107 -0.666667 -0.707107
v 0.555570 -0.666667 -0.831470
v 0.382683 -0.666667 -0.923880
v 0.195090 -0.666667 -0.980785
v 0.000000 -0.666667 -1.000000
v -0.195090 -0.666667 -0.980785
v -0.382683 -0.666667 -0.923880
v -0.555570 -0.666667 -0.831470
v -0.707107 -0.666667 -0.707107
v -0.831470 -0.666667 -0.555570
v -0.923880 -0.666667 -0.382683
v -0.980785 -0.666667 -0.195090
v -1.000000 -0.666667 0.000000
v -0.980785 -0.666667 0.195091
v -0.923879 -0.666667 0.382684
v -0.831469 -0.666667 0.555571
v -0.707106 -0.666667 0.707107
v -0.555570 -0.666667 0.831470
v -0.382683 -0.666667 0.923880
v -0.195089 -0.666667 0.980785
v 0.000001 -0.666667 1.000000
v 0.195091 -0.666667 0.980785
v 0.382684 -0.666667 0.923879
v 0.555571 -0.666667 0.831469
v 0.707108 -0.666667 0.707106
v 0.831470 -0.666667 0.555569
v 0.923880 -0.666667 0.382682
v 0.980786 -0.666667 0.195089
v 1.000000 -1.000000 0.000000
v 0.980785 -1.000000 -0.195090
v 0.923880 -1.000000 -0.382683
v 0.831470 -1.000000 -0.555570
v 0.707107 -1.000000 -0.707107
v 0.555570 -1.000000 -0.831470
v 0.382683 -1.000000 -0.923880
v 0.195090 -1.000000 -0.980785
v 0.000000 -1.000000 -1.000000
v -0.195090 -1.000000 -0.980785
v -0.382683 -1.000000 -0.923880
v -0.555570 -1.000000 -0.831470
v -0.707107 -1.000000 -0.707107
v -0.831470 -1.000000 -0.555570
v -0.923880 -1.000000 -0.382683
v -0.980785 -1.000000 -0.195090
v -1.000000 -1.000000 0.000000
v -0.980785 -1.000000 0.195091
v -0.923879 -1.000000 0.382684
v -0.831469 -1.000000 0.555571
v -0.707106 -1.000000 0.707107
v -0.555570 -1.000000 0.831470
v -0.382683 -1.000000 0.923880
v -0.195089 -1.000000 0.980785
v 0.000001 -1.000000 1.000000
v 0.195091 -1.000000 0.980785
v 0.382684 -1.000000 0.923879
v 0.555571 -1.000000 0.831469
v 0.707108 -1.000000 0.707106
v 0.831470 -1.000000 0.555569
v 0.923880 -1.000000 0.382682
v 0.980786 -1.000000 0.195089
v 0.833333 -1.000000 0.000000
v 0.817321 -1.000000 -0.162575
v 0.769900 -1.000000 -0.318903
v 0.692891 -1.000000 -0.462975
v 0.589256 -1.000000 -0.589256
v 0.462975 -1.000000 -0.692891
v 0.318903 -1.000000 -0.769900
v 0.162575 -1.000000 -0.817321
v 0.000000 -1.000000 -0.833333
v -0.162575 -1.000000 -0.817321
v -0.318903 -1.000000 -0.769900
v -0.462975 -1.000000 -0.692891
v -0.589256 -1.000000 -0.589256
v -0.692891 -1.000000 -0.462975
v -0.769900 -1.000000 -0.318903
v -0.817321 -1.000000 -0.162575
v -0.833333 -1.000000 0.000000
v -0.817321 -1.000000 0.162576
v -0.769899 -1.000000 0.318903
v -0.692891 -1.000000 0.462976
v -0.589255 -1.000000 0.589256
v -0.462975 -1.000000 0.692892
v -0.318902 -1.000000 0.769900
v -0.162575 -1.000000 0.817321
v 0.000001 -1.000000 0.833333
v 0.162576 -1.000000 0.817321
v 0.318904 -1.000000 0.769899
v 0.462976 -1.000000 0.692891
v 0.589256 -1.000000 0.589255
v 0.692892 -1.000000 0.462974
v 0.769900 -1.000000 0.318902
v 0.817321 -1.000000 0.162574
v 0.666667 -1.000000 0.000000
v 0.653857 -1.000000 -0.130060
v 0.615920 -1.000000 -0.255122
v 0.554313 -1.000000 -0.370380
v 0.471404 -1.000000 -0.471404
v 0.370380 -1.000000 -0.554313
v 0.255122 -1.000000 -0.615920
v 0.130060 -1.000000 -0.653857
v 0.000000 -1.000000 -0.666667
v -0.130060 -1.000000 -0.653857
v -0.255122 -1.000000 -0.615920
v -0.370380 -1.000000 -0.554313
v -0.471404 -1.000000 -0.471404
v -0.554313 -1.000000 -0.370380
v -0.615920 -1.000000 -0.255122
v -0.653857 -1.000000 -0.130060
v -0.666667 -1.000000 0.000000
v -0.653857 -1.000000 0.130060
v -0.615920 -1.000000 0.255123
v -0.554313 -1.000000 0.370380
v -0.471404 -1.000000 0.471405
v -0.370380 -1.000000 0.554313
v -0.255122 -1.000000 0.615920
v -0.130060 -1.000000 0.653857
v 0.000001 -1.000000 0.666667
v 0.130061 -1.000000 0.653857
v 0.255123 -1.000000 0.615919
v 0.370381 -1.000000 0.554313
v 0.471405 -1.000000 0.471404
v 0.554314 -1.000000 0.370379
v 0.615920 -1.000000 0.255121
v 0.653857 -1.000000 0.130059
v 0.500000 -1.000000 0.000000
v 0.490393 -1.000000 -0.097545
v 0.461940 -1.000000 -0.191342
v 0.415735 -1.000000 -0.277785
v 0.353553 -1.000000 -0.353553
v 0.277785 -1.000000 -0.415735
v 0.191342 -1.000000 -0.461940
v 0.097545 -1.000000 -0.490393
v 0.000000 -1.000000 -0.500000
v -0.097545 -1.000000 -0.490393
v -0.191342 -1.000000 -0.461940
v -0.277785 -1.000000 -0.415735
v -0.353553 -1.000000 -0.353553
v -0.415735 -1.000000 -0.277785
v -0.461940 -1.000000 -0.191342
v -0.490393 -1.000000 -0.097545
v -0.500000 -1.000000 0.000000
v -0.490393 -1.000000 0.097545
v -0.461940 -1.000000 0.191342
v -0.415735 -1.000000 0.277785
v -0.353553 -1.000000 0.353554
v -0.277785 -1.000000 0.415735
v -0.191341 -1.000000 0.461940
v -0.097545 -1.000000 0.490393
v 0.000000 -1.000000 0.500000
v 0.097546 -1.000000 0.490393
v 0.191342 -1.000000 0.461940
v 0.277786 -1.000000 0.415734
v 0.353554 -1.000000 0.353553
v 0.415735 -1.000000 0.277785
v 0.461940 -1.000000 0.191341
v 0.490393 -1.000000 0.097544
v 0.333333 -1.000000 0.000000
v 0.326928 -1.000000 -0.065030
v 0.307960 -1.000000 -0.127561
v 0.277157 -1.000000 -0.185190
v 0.235702 -1.000000 -0.235702
v 0.185190 -1.000000 -0.277157
v 0.127561 -1.000000 -0.307960
v 0.065030 -1.000000 -0.326928
v 0.000000 -1.000000 -0.333333
v -0.065030 -1.000000 -0.326928
v -0.127561 -1.000000 -0.307960
v -0.185190 -1.000000 -0.277157
v -0.235702 -1.000000 -0.235702
v -0.277157 -1.000000 -0.185190
v -0.307960 -1.000000 -0.127561
v -0.326928 -1.000000 -0.065030
v -0.333333 -1.000000 0.000000
v -0.326928 -1.000000 0.065030
v -0.307960 -1.000000 0.127561
v -0.277156 -1.000000 0.185190
v -0.235702 -1.000000 0.235702
v -0.185190 -1.000000 0.277157
v -0.127561 -1.000000 0.307960
v -0.065030 -1.000000 0.326928
v 0.000000 -1.000000 0.333333
v 0.065030 -1.000000 0.326928
v 0.127561 -1.000000 0.307960
v 0.185190 -1.000000 0.277156
v 0.235703 -1.000000 0.235702
v 0.277157 -1.000000 0.185190
v 0.307960 -1.000000 0.127561
v 0.326928 -1.000000 0.065030
v 0.166667 -1.000000 0.000000
v 0.163464 -1.000000 -0.032515
v 0.153980 -1.000000 -0.063781
v 0.138578 -1.000000 -0.092595
v 0.117851 -1.000000 -0.117851
v 0.092595 -1.000000 -0.138578
v 0.063781 -1.000000 -0.153980
v 0.032515 -1.000000 -0.163464
v 0.000000 -1.000000 -0.166667
v -0.032515 -1.000000 -0.163464
v -0.063781 -1.000000 -0.153980
v -0.092595 -1.000000 -0.138578
v -0.117851 -1.000000 -0.117851
v -0.138578 -1.000000 -0.092595
v -0.153980 -1.000000 -0.063781
v -0.163464 -1.000000 -0.032515
v -0.166667 -1.000000 0.000000
v -0.163464 -1.000000 0.032515
v -0.153980 -1.000000 0.063781
v -0.138578 -1.000000 0.092595
v -0.117851 -1.000000 0.117851
v -0.092595 -1.000000 0.138578
v -0.063780 -1.000000 0.153980
v -0.032515 -1.000000 0.163464
v 0.000000 -1.000000 0.166667
v 0.032515 -1.000000 0.163464
v 0.063781 -1.000000 0.153980
v 0.092595 -1.000000 0.138578
v 0.117851 -1.000000 0.117851
v 0.138578 -1.000000 0.092595
v 0.153980 -1.000000 0.063780
v 0.163464 -1.000000 0.032515
v 0.000000 -1.000000 0.000000
vn -0.0000 1.0000 -0.0000
vn 0.9952 -0.0000 -0.0980
vn 0.9569 -0.0000 -0.2903
vn 0.8819 -0.0000 -0.4714
vn 0.7730 -0.0000 -0.6344
vn 0.6344 -0.0000 -0.7730
vn 0.4714 -0.0000 -0.8819
vn 0.2903 -0.0000 -0.9569
vn 0.0980 -0.0000 -0.9952
vn -0.0980 -0.0000 -0.9952
vn -0.2903 -0.0000 -0.9569
vn -0.4714 -0.0000 -0.8819
vn -0.6344 -0.0000 -0.7730
vn -0.7730 -0.0000 -0.6344
vn -0.8819 -0.0000 -0.4714
vn -0.9569 -0.0000 -0.2903
vn -0.9952 -0.0000 -0.0980
vn -0.9952 -0.0000 0.0980
vn -0.9569 -0.0000 0.2903
vn -0.8819 -0.0000 0.4714
vn -0.7730 -0.0000 0.6344
vn -0.6344 -0.0000 0.7730
vn -0.4714 -0.0000 0.8819
vn -0.2903 -0.0000 0.9569
vn -0.0980 -0.0000 0.9952
vn 0.0980 -0.0000 0.9952
vn 0.2903 -0.0000 0.9569
vn 0.4714 -0.0000 0.8819
vn 0.6344 -0.0000 0.7730
vn 0.7730 -0.0000 0.6344
vn 0.8819 -0.0000 0.4714
vn 0.9569 -0.0000 0.2903
vn 0.9952 -0.0000 0.0980
vn -0.0000 -1.0000 -0.0000
s 0 
f 2//1 3//1 1//1
f 3//1 4//1 1//1
f 4//1 5//1 1//1
f 5//1 6//1 1//1
f 6//1 7//1 1//1
f 7//1 8//1 1//1
f 8//1 9//1 1//1
f 9//1 10//1 1//1
f 10//1 11//1 1//1
f 11//1 12//1 1//1
f 12//1 13//1 1//1
f 13//1 14//1 1//1
f 14//1 15//1 1//1
f 15//1 16//1 1//1
f 16//1 17//1 1//1
f 17//1 18//1 1//1
f 18//1 19//1 1//1
f 19//1 20//1 1//1
f 20//1 21//1 1//1
f 21//1 22//1 1//1
f 22//1 23//1 1//1
f 23//1 24//1 1//1
f 24//1 25//1 1//1
f 25//1 26//1 1//1
f 26//1 27//1 1//1
f 27//1 28//1 1//1
f 28//1 29//1 1//1
f 29//1 30//1 1//1
f 30//1 31//1 1//1
f 31//1 32//1 1//1
f 32//1 33//1 1//1
f 33//1 2//1 1//1
f 2//1 35//1 3//1
f 3//1 36//1 4//1
f 4//1 37//1 5//1
f 5//1 38//1 6//1
f 6//1 39//1 7//1
f 7//1 40//1 8//1
f 8//1 41//1 9//1
f 9//1 42//1 10//1
f 10//1 43//1 11//1
f 11//1 44//1 12//1
f 12//1 45//1 13//1
f 13//1 46//1 14//1
f 14//1 47//1 15//1
f 15//1 48//1 16//1
f 16//1 49//1 17//1
f 17//1 50//1 18//1
f 18//1 51//1 19//1
f 19//1 52//1 20//1
f 20//1 53//1 21//1
f 21//1 54//1 22//1
f 22//1 55//1 23//1
f 23//1 56//1 24//1
f 24//1 57//1 25//1
f 25//1 58//1 26//1
f 26//1 59//1 27//1
f 27//1 60//1 28//1
f 28//1 61//1 29//1
f 29//1 62//1 30//1
f 30//1 63//1 31//1
f 31//1 64//1 32//1
f 32//1 65//1 33//1
f 33//1 34//1 2//1
f 34//1 67//1 35//1
f 35//1 68//1 36//1
f 36//1 69//1 37//1
f 37//1 70//1 38//1
f 38//1 71//1 39//1
f 39//1 72//1 40//1
f 40//1 73//1 41//1
f 41//1 74//1 42//1
f 42//1 75//1 43//1
f 43//1 76//1 44//1
f 44//1 77//1 45//1
f 45//1 78//1 46//1
f 46//1 79//1 47//1
f 47//1 80//1 48//1
f 48//1 81//1 49//1
f 49//1 82//1 50//1
f 50//1 83//1 51//1
f 51//1 84//1 52//1
f 52//1 85//1 53//1
f 53//1 86//1 54//1
f 54//1 87//1 55//1
f 55//1 88//1 56//1
f 56//1 89//1 57//1
f 57//1 90//1 58//1
f 58//1 91//1 59//1
f 59//1 92//1 60//1
f 60//1 93//1 61//1
f 61//1 94//1 62//1
f 62//1 95//1 63//1
f 63//1 96//1 64//1
f 64//1 97//1 65//1
f 65//1 66//1 34//1
f 66//1 99//1 67//1
f 67//1 100//1 68//1
f 68//1 101//1 69//1
f 69//1 102//1 70//1
f 70//1 103//1 71//1
f 71//1 104//1 72//1
f 72//1 105//1 73//1
f 73//1 106//1 74//1
f 74//1 107//1 75//1
f 75//1 108//1 76//1
f 76//1 109//1 77//1
f 77//1 110//1 78//1
f 78//1 111//1 79//1
f 79//1 112//1 80//1
f 80//1 113//1 81//1
f 81//1 114//1 82//1
f 82//1 115//1 83//1
f 83//1 116//1 84//1
f 84//1 117//1 85//1
f 85//1 118//1 86//1
f 86//1 119//1 87//1
f 87//1 120//1 88//1
f 88//1 121//1 89//1
f 89//1 122//1 90//1
f 90//1 123//1 91//1
f 91//1 124//1 92//1
f 92//1 125//1 93//1
f 93//1 126//1 94//1
f 94//1 127//1 95//1
f 95//1 128//1 96//1
f 96//1 129//1 97//1
f 97//1 98//1 66//1
f 98//1 131//1 99//1
f 99//1 132//1 100//1
f 100//1 133//1 101//1
f 101//1 134//1 102//1
f 102//1 135//1 103//1
f 103//1 136//1 104//1
f 104//1 137//1 105//1
f 105//1 138//1 106//1
f 106//1 139//1 107//1
f 107//1 140//1 108//1
f 108//1 141//1 109//1
f 109//1 142//1 110//1
f 110//1 143//1 111//1
f 111//1 144//1 112//1
f 112//1 145//1 113//1
f 113//1 146//1 114//1
f 114//1 147//1 115//1
f 115//1 148//1 116//1
f 116//1 149//1 117//1
f 117//1 150//1 118//1
f 118//1 151//1 119//1
f 119//1 152//1 120//1
f 120//1 153//1 121//1
f 121//1 154//1 122//1
f 122//1 155//1 123//1
f 123//1 156//1 124//1
f 124//1 157//1 125//1
f 125//1 158//1 126//1
f 126//1 159//1 127//1
f 127//1 160//1 128//1
f 128//1 161//1 129//1
f 129//1 130//1 98//1
f 130//1 163//1 131//1
f 131//1 164//1 132//1
f 132//1 165//1 133//1
f 133//1 166//1 134//1
f 134//1 167//1 135//1
f 135//1 168//1 136//1
f 136//1 169//1 137//1
f 137//1 170//1 138//1
f 138//1 171//1 139//1
f 139//1 172//1 140//1
f 140//1 173//1 141//1
f 141//1 174//1 142//1
f 142//1 175//1 143//1
f 143//1 176//1 144//1
f 144//1 177//1 145//1
f 145//1 178//1 146//1
f 146//1 179//1 147//1
f 147//1 180//1 148//1
f 148//1 181//1 149//1
f 149//1 182//1 150//1
f 150//1 183//1 151//1
f 151//1 184//1 152//1
f 152//1 185//1 153//1
f 153//1 186//1 154//1
f 154//1 187//1 155//1
f 155//1 188//1 156//1
f 156//1 189//1 157//1
f 157//1 190//1 158//1
f 158//1 191//1 159//1
f 159//1 192//1 160//1
f 160//1 193//1 161//1
f 161//1 162//1 130//1
f 162//2 195//2 163//2
f 163//3 196//3 164//3
f 164//4 197//4 165//4
f 165//5 198//5 166//5
f 166//6 199//6 167//6
f 167//7 200//7 168//7
f 168//8 201//8 169//8
f 169//9 202//9 170//9
f 170//10 203//10 171//10
f 171//11 204//11 172//11
f 172//12 205//12 173//12
f 173//13 206//13 174//13
f 174//14 207//14 175//14
f 175//15 208//15 176//15
f 176//16 209//16 177//16
f 177//17 210//17 178//17
f 178//18 211//18 179//18
f 179//19 212//19 180//19
f 180//20 213//20 181//20
f 181//21 214//21 182//21
f 182//22 215//22 183//22
f 183//23 216//23 184//23
f 184//24 217//24 185//24
f 185//25 218//25 186//25
f 186//26 219//26 187//26
f 187//27 220//27 188//27
f 188//28 221//28 189//28
f 189//29 222//29 190//29
f 190//30 223//30 191//30
f 191//31 224//31 192//31
f 192//32 225//32 193//32
f 193//33 194//33 162//33
f 194//2 227//2 195//2
f 195//3 228//3 196//3
f 196//4 229//4 197//4
f 197//5 230//5 198//5
f 198//6 231//6 199//6
f 199//7 232//7 200//7
f 200//8 233//8 201//8
f 201//9 234//9 202//9
f 202//10 235//10 203//10
f 203//11 236//11 204//11
f 204//12 237//12 205//12
f 205//13 238//13 206//13
f 206//14 239//14 207//14
f 207//15 240//15 208//15
f 208//16 241//16 209//16
f 209//17 242//17 210//17
f 210//18 243//18 211//18
f 211//19 244//19 212//19
f 212//20 245//20 213//20
f 213//21 246//21 214//21
f 214//22 247//22 215//22
f 215//23 248//23 216//23
f 216//24 249//24 217//24
f 217//25 250//25 218//25
f 218//26 251//26 219//26
f 219//27 252//27 220//27
f 220//28 253//28 221//28
f 221//29 254//29 222//29
f 222//30 255//30 223//30
f 223//31 256//31 224//31
f 224//32 257//32 225//32
f 225//33 226//33 194//33
f 226//2 259//2 227//2
f 227//3 260//3 228//3
f 228//4 261//4 229//4
f 229//5 262//5 230//5
f 230//6 263//6 231//6
f 231//7 264//7 232//7
f 232//8 265//8 233//8
f 233//9 266//9 234//9
f 234//10 267//10 235//10
f 235//11 268//11 236//11
f 236//12 269//12 237//12
f 237//13 270//13 238//13
f 238//14 271//14 239//14
f 239//15 272//15 240//15
f 240//16 273//16 241//16
f 241//17 274//17 242//17
f 242//18 275//18 243//18
f 243//19 276//19 244//19
f 244//20 277//20 245//20
f 245//21 278//21 246//21
f 246//22 279//22 247//22
f 247//23 280//23 248//23
f 248//24 281//24 249//24
f 249//25 282//25 250//25
f 250//26 283//26 251//26
f 251//27 284//27 252//27
f 252//28 285//28 253//28
f 253//29 286//29 254//29
f 254//30 287//30 255//30
f 255//31 288//31 256//31
f 256//32 289//32 257//32
f 257//33 258//33 226//33
f 258//2 291//2 259//2
f 259//3 292//3 260//3
f 260//4 293//4 261//4
f 261//5 294//5 262//5
f 262//6 295//6 263//6
f 263//7 296//7 264//7
f 264//8 297//8 265//8
f 265//9 298//9 266//9
f 266//10 299//10 267//10
f 267//11 300//11 268//11
f 268//12 301//12 269//12
f 269//13 302//13 270//13
f 270//14 303//14 271//14
f 271//15 304//15 272//15
f 272//16 305//16 273//16
f 273//17 306//17 274//17
f 274//18 307//18 275//18
f 275//19 308//19 276//19
f 276//20 309//20 277//20
f 277//21 310//21 278//21
f 278//22 311//22 279//22
f 279//23 312//23 280//23
f 280//24 313//24 281//24
f 281//25 314//25 282//25
f 282//26 315//26 283//26
f 283//27 316//27 284//27
f 284//28 317//28 285//28
f 285//29 318//29 286//29
f 286//30 319//30 287//30
f 287//31 320//31 288//31
f 288//32 321//32 289//32
f 289//33 290//33 258//33
f 290//2 323//2 291//2
f 291//3 324//3 292//3
f 292//4 325//4 293//4
f 293//5 326//5 294//5
f 294//6 327//6 295//6
f 295//7 328//7 296//7
f 296//8 329//8 297//8
f 297//9 330//9 298//9
f 298//10 331//10 299//10
f 299//11 332//11 300//11
f 300//12 333//12 301//12
f 301//13 334//13 302//13
f 302//14 335//14 303//14
f 303//15 336//15 304//15
f 304//16 337//16 305//16
f 305//17 338//17 306//17
f 306//18 339//18 307//18
f 307//19 340//19 308//19
f 308//20 341//20 309//20
f 309//21 342//21 310//21
f 310//22 343//22 311//22
f 311//23 344//23 312//23
f 312//24 345//24 313//24
f 313//25 346//25 314//25
f 314//26 347//26 315//26
f 315//27 348//27 316//27
f 316//28 349//28 317//28
f 317//29 350//29 318//29
f 318//30 351//30 319//30
f 319//31 352//31 320//31
f 320//32 353//32 321//32
f 321//33 322//33 290//33
f 322//2 355//2 323//2
f 323//3 356//3 324//3
f 324//4 357//4 325//4
f 325//5 358//5 326//5
f 326//6 359//6 327//6
f 327//7 360//7 328//7
f 328//8 361//8 329//8
f 329//9 362//9 330//9
f 330//10 363//10 331//10
f 331//11 364//11 332//11
f 332//12 365//12 333//12
f 333//13 366//13 334//13
f 334//14 367//14 335//14
f 335//15 368//15 336//15
f 336//16 369//16 337//16
f 337//17 370//17 338//17
f 338//18 371//18 339//18
f 339//19 372//19 340//19
f 340//20 373//20 341//20
f 341//21 374//21 342//21
f 342//22 375//22 343//22
f 343//23 376//23 344//23
f 344//24 377//24 345//24
f 345//25 378//25 346//25
f 346//26 379//26 347//26
f 347//27 380//27 348//27
f 348//28 381//28 349//28
f 349//29 382//29 350//29
f 350//30 383//30 351//30
f 351//31 384//31 352//31
f 352//32 385//32 353//32
f 353//33 354//33 322//33
f 354//34 387//34 355//34
f 355//34 388//34 356//34
f 356//34 389//34 357//34
f 357//34 390//34 358//34
f 358//34 391//34 359//34
f 359//34 392//34 360//34
f 360//34 393//34 361//34
f 361//34 394//34 362//34
f 362//34 395//34 363//34
f 363//34 396//34 364//34
f 364//34 397//34 365//34
f 365//34 398//34 366//34
f 366//34 399//34 367//34
f 367//34 400//34 368//34
f 368//34 401//34 369//34
f 369//34 402//34 370//34
f 370//34 403//34 371//34
f 371//34 404//34 372//34
f 372//34 405//34 373//34
f 373//34 406//34 374//34
f 374//34 407//34 375//34
f 375//34 408//34 376//34
f 376//34 409//34 377//34
f 377//34 410//34 378//34
f 378//34 411//34 379//34
f 379//34 412//34 380//34
f 380//34 413//34 381//34
f 381//34 414//34 382//34
f 382//34 415//34 383//34
f 383//34 416//34 384//34
f 384//34 417//34 385//34
f 385//34 386//34 354//34
f 386//34 419//34 387//34
f 387//34 420//34 388//34
f 388//34 421//34 389//34
f 389//34 422//34 390//34
f 390//34 423//34 391//34
f 391//34 424//34 392//34
f 392//34 425//34 393//34
f 393//34 426//34 394//34
f 394//34 427//34 395//34
f 395//34 428//34 396//34
f 396//34 429//34 397//34
f 397//34 430//34 398//34
f 398//34 431//34 399//34
f 399//34 432//34 400//34
f 400//34 433//34 401//34
f 401//34 434//34 402//34
f 402//34 435//34 403//34
f 403//34 436//34 404//34
f 404//34 437//34 405//34
f 405//34 438//34 406//34
f 406//34 439//34 407//34
f 407//34 440//34 408//34
f 408//34 441//34 409//34
f 409//34 442//34 410//34
f 410//34 443//34 411//34
f 411//34 444//34 412//34
f 412//34 445//34 413//34
f 413//34 446//34 414//34
f 414//34 447//34 415//34
f 415//34 448//34 416//34
f 416//34 449//34 417//34
f 417//34 418//34 386//34
f 418//34 451//34 419//34
f 419//34 452//34 420//34
f 420//34 453//34 421//34
f 421//34 454//34 422//34
f 422//34 455//34 423//34
f 423//34 456//34 424//34
f 424//34 457//34 425//34
f 425//34 458//34 426//34
f 426//34 459//34 427//34
f 427//34 460//34 428//34
f 428//34 461//34 429//34
f 429//34 462//34 430//34
f 430//34 463//34 431//34
f 431//34 464//34 432//34
f 432//34 465//34 433//34
f 433//34 466//34 434//34
f 434//34 467//34 435//34
f 435//34 468//34 436//34
f 436//34 469//34 437//34
f 437//34 470//34 438//34
f 438//34 471//34 439//34
f 439//34 472//34 440//34
f 440//34 473//34 441//34
f 441//34 474//34 442//34
f 442//34 475//34 443//34
f 443//34 476//34 444//34
f 444//34 477//34 445//34
f 445//34 478//34 446//34
f 446//34 479//34 447//34
f 447//34 480//34 448//34
f 448//34 481//34 449//34
f 449//34 450//34 418//34
f 450//34 483//34 451//34
f 451//34 484//34 452//34
f 452//34 485//34 453//34
f 453//34 486//34 454//34
f 454//34 487//34 455//34
f 455//34 488//34 456//34
f 456//34 489//34 457//34
f 457//34 490//34 458//34
f 458//34 491//34 459//34
f 459//34 492//34 460//34
f 460//34 493//34 461//34
f 461//34 494//34 462//34
f 462//34 495//34 463//34
f 463//34 496//34 464//34
f 464//34 497//34 465//34
f 465//34 498//34 466//34
f 466//34 499//34 467//34
f 467//34 500//34 468//34
f 468//34 501//34 469//34
f 469//34 502//34 470//34
f 470//34 503//34 471//34
f 471//34 504//34 472//34
f 472//34 505//34 473//34
f 473//34 506//34 474//34
f 474//34 507//34 475//34
f 475//34 508//34 476//34
f 476//34 509//34 477//34
f 477//34 510//34 478//34
f 478//34 511//34 479//34
f 479//34 512//34 480//34
f 480//34 513//34 481//34
f 481//34 482//34 450//34
f 482//34 515//34 483//34
f 483//34 516//34 484//34
f 484//34 517//34 485//34
f 485//34 518//34 486//34
f 486//34 519//34 487//34
f 487//34 520//34 488//34
f 488//34 521//34 489//34
f 489//34 522//34 490//34
f 490//34 523//34 491//34
f 491//34 524//34 492//34
f 492//34 525//34 493//34
f 493//34 526//34 494//34
f 494//34 527//34 495//34
f 495//34 528//34 496//34
f 496//34 529//34 497//34
f 497//34 530//34 498//34
f 498//34 531//34 499//34
f 499//34 532//34 500//34
f 500//34 533//34 501//34
f 501//34 534//34 502//34
f 502//34 535//34 503//34
f 503//34 536//34 504//34
f 504//34 537//34 505//34
f 505//34 538//34 506//34
f 506//34 539//34 507//34
f 507//34 540//34 508//34
f 508//34 541//34 509//34
f 509//34 542//34 510//34
f 510//34 543//34 511//34
f 511//34 544//34 512//34
f 512//34 545//34 513//34
f 513//34 514//34 482//34
f 514//34 546//34 515//34
f 515//34 546//34 516//34
f 516//34 546//34 517//34
f 517//34 546//34 518//34
f 518//34 546//34 519//34
f 519//34 546//34 520//34
f 520//34 546//34 521//34
f 521//34 546//34 522//34
f 522//34 546//34 523//34
f 523//34 546//34 524//34
f 524//34 546//34 525//34
f 525//34 546//34 526//34
f 526//34 546//34 527//34
f 527//34 546//34 528//34
f 528//34 546//34 529//34
f 529//34 546//34 530//34
f 530//34 546//34 531//34
f 531//34 546//34 532//34
f 532//34 546//34 533//34
f 533//34 546//34 534//34
f 534//34 546//34 535//34
f 535//34 546//34 536//34
f 536//34 546//34 537//34
f 537//34 546//34 538//34
f 538//34 546//34 539//34
f 539//34 546//34 540//34
f 540//34 546//34 541//34
f 541//34 546//34 542//34
f 542//34 546//34 543//34
f 543//34 546//34 544//34
f 544//34 546//34 545//34
f 545//34 546//34 514//34
f 2//1 34//1 35//1
f 3//1 35//1 36//1
f 4//1 36//1 37//1
f 5//1 37//1 38//1
f 6//1 38//1 39//1
f 7//1 39//1 40//1
f 8//1 40//1 41//1
f 9//1 41//1 42//1
f 10//1 42//1 43//1
f 11//1 43//1 44//1
f 12//1 44//1 45//1
f 13//1 45//1 46//1
f 14//1 46//1 47//1
f 15//1 47//1 48//1
f 16//1 48//1 49//1
f 17//1 49//1 50//1
f 18//1 50//1 51//1
f 19//1 51//1 52//1
f 20//1 52//1 53//1
f 21//1 53//1 54//1
f 22//1 54//1 55//1
f 23//1 55//1 56//1
f 24//1 56//1 57//1
f 25//1 57//1 58//1
f 26//1 58//1 59//1
f 27//1 59//1 60//1
f 28//1 60//1 61//1
f 29//1 61//1 62//1
f 30//1 62//1 63//1
f 31//1 63//1 64//1
f 32//1 64//1 65//1
f 33//1 65//1 34//1
f 34//1 66//1 67//1
f 35//1 67//1 68//1
f 36//1 68//1 69//1
f 37//1 69//1 70//1
f 38//1 70//1 71//1
f 39//1 71//1 72//1
f 40//1 72//1 73//1
f 41//1 73//1 74//1
f 42//1 74//1 75//1
f 43//1 75//1 76//1
f 44//1 76//1 77//1
f 45//1 77//1 78//1
f 46//1 78//1 79//1
f 47//1 79//1 80//1
f 48//1 80//1 81//1
f 49//1 81//1 82//1
f 50//1 82//1 83//1
f 51//1 83//1 84//1
f 52//1 84//1 85//1
f 53//1 85//1 86//1
f 54//1 86//1 87//1
f 55//1 87//1 88//1
f 56//1 88//1 89//1
f 57//1 89//1 90//1
f 58//1 90//1 91//1
f 59//1 91//1 92//1
f 60//1 92//1 93//1
f 61//1 93//1 94//1
f 62//1 94//1 95//1
f 63//1 95//1 96//1
f 64//1 96//1 97//1
f 65//1 97//1 66//1
f 66//1 98//1 99//1
f 67//1 99//1 100//1
f 68//1 100//1 101//1
f 69//1 101//1 102//1
f 70//1 102//1 103//1
f 71//1 103//1 104//1
f 72//1 104//1 105//1
f 73//1 105//1 106//1
f 74//1 106//1 107//1
f 75//1 107//1 108//1
f 76//1 108//1 109//1
f 77//1 109//1 110//1
f 78//1 110//1 111//1
f 79//1 111//1 112//1
f 80//1 112//1 113//1
f 81//1 113//1 114//1
f 82//1 114//1 115//1
f 83//1 115//1 116//1
f 84//1 116//1 117//1
f 85//1 117//1 118//1
f 86//1 118//1 119//1
f 87//1 119//1 120//1
f 88//1 120//1 121//1
f 89//1 121//1 122//1
f 90//1 122//1 123//1
f 91//1 123//1 124//1
f 92//1 124//1 125//1
f 93//1 125//1 126//1
f 94//1 126//1 127//1
f 95//1 127//1 128//1
f 96//1 128//1 129//1
f 97//1 129//1 98//1
f 98//1 130//1 131//1
f 99//1 131//1 132//1
f 100//1 132//1 133//1
f 101//1 133//1 134//1
f 102//1 134//1 135//1
f 103//1 135//1 136//1
f 104//1 136//1 137//1
f 105//1 137//1 138//1
f 106//1 138//1 139//1
f 107//1 139//1 140//1
f 108//1 140//1 141//1
f 109//1 141//1 142//1
f 110//1 142//1 143//1
f 111//1 143//1 144//1
f 112//1 144//1 145//1
f 113//1 145//1 146//1
f 114//1 146//1 147//1
f 115//1 147//1 148//1
f 116//1 148//1 149//1
f 117//1 149//1 150//1
f 118//1 150//1 151//1
f 119//1 151//1 152//1
f 120//1 152//1 153//1
f 121//1 153//1 154//1
f 122//1 154//1 155//1
f 123//1 155//1 156//1
f 124//1 156//1 157//1
f 125//1 157//1 158//1
f 126//1 158//1 159//1
f 127//1 159//1 160//1
f 128//1 160//1 161//1
f 129//1 161//1 130//1
f 130//1 162//1 163//1
f 131//1 163//1 164//1
f 132//1 164//1 165//1
f 133//1 165//1 166//1
f 134//1 166//1 167//1
f 135//1 167//1 168//1
f 136//1 168//1 169//1
f 137//1 169//1 170//1
f 138//1 170//1 171//1
f 139//1 171//1 172//1
f 140//1 172//1 173//1
f 141//1 173//1 174//1
f 142//1 174//1 175//1
f 143//1 175//1 176//1
f 144//1 176//1 177//1
f 145//1 177//1 178//1
f 146//1 178//1 179//1
f 147//1 179//1 180//1
f 148//1 180//1 181//1
f 149//1 181//1 182//1
f 150//1 182//1 183//1
f 151//1 183//1 184//1
f 152//1 184//1 185//1
f 153//1 185//1 186//1
f 154//1 186//1 187//1
f 155//1 187//1 188//1
f 156//1 188//1 189//1
f 157//1 189//1 190//1
f 158//1 190//1 191//1
f 159//1 191//1 192//1
f 160//1 192//1 193//1
f 161//1 193//1 162//1
f 162//2 194//2 195//2
f 163//3 195//3 196//3
f 164//4 196//4 197//4
f 165//5 197//5 198//5
f 166//6 198//6 199//6
f 167//7 199//7 200//7
f 168//8 200//8 201//8
f 169//9 201//9 202//9
f 170//10 202//10 203//10
f 171//11 203//11 204//11
f 172//12 204//12 205//12
f 173//13 205//13 206//13
f 174//14 206//14 207//14
f 175//15 207//15 208//15
f 176//16 208//16 209//16
f 177//17 209//17 210//17
f 178//18 210//18 211//18
f 179//19 211//19 212//19
f 180//20 212//20 213//20
f 181//21 213//21 214//21
f 182//22 214//22 215//22
f 183//23 215//23 216//23
f 184//24 216//24 217//24
f 185//25 217//25 218//25
f 186//26 218//26 219//26
f 187//27 219//27 220//27
f 188//28 220//28 221//28
f 189//29 221//29 222//29
f 190//30 222//30 223//30
f 191//31 223//31 224//31
f 192//32 224//32 225//32
f 193//33 225//33 194//33
f 194//2 226//2 227//2
f 195//3 227//3 228//3
f 196//4 228//4 229//4
f 197//5 229//5 230//5
f 198//6 230//6 231//6
f 199//7 231//7 232//7
f 200//8 232//8 233//8
f 201//9 233//9 234//9
f 202//10 234//10 235//10
f 203//11 235//11 236//11
f 204//12 236//12 237//12
f 205//13 237//13 238//13
f 206//14 238//14 239//14
f 207//15 239//15 240//15
f 208//16 240//16 241//16
f 209//17 241//17 242//17
f 210//18 242//18 243//18
f 211//19 243//19 244//19
f 212//20 244//20 245//20
f 213//21 245//21 246//21
f 214//22 246//22 247//22
f 215//23 247//23 248//23
f 216//24 248//24 249//24
f 217//25 249//25 250//25
f 218//26 250//26 251//26
f 219//27 251//27 252//27
f 220//28 252//28 253//28
f 221//29 253//29 254//29
f 222//30 254//30 255//30
f 223//31 255//31 256//31
f 224//32 256//32 257//32
f 225//33 257//33 226//33
f 226//2 258//2 259//2
f 227//3 259//3 260//3
f 228//4 260//4 261//4
f 229//5 261//5 262//5
f 230//6 262//6 263//6
f 231//7 263//7 264//7
f 232//8 264//8 265//8
f 233//9 265//9 266//9
f 234//10 266//10 267//10
f 235//11 267//11 268//11
f 236//12 268//12 269//12
f 237//13 269//13 270//13
f 238//14 270//14 271//14
f 239//15 271//15 272//15
f 240//16 272//16 273//16
f 241//17 273//17 274//17
f 242//18 274//18 275//18
f 243//19 275//19 276//19
f 244//20 276//20 277//20
f 245//21 277//21 278//21
f 246//22 278//22 279//22
f 247//23 279//23 280//23
f 248//24 280//24 281//24
f 249//25 281//25 282//25
f 250//26 282//26 283//26
f 251//27 283//27 284//27
f 252//28 284//28 285//28
f 253//29 285//29 286//29
f 254//30 286//30 287//30
f 255//31 287//31 288//31
f 256//32 288//32 289//32
f 257//33 289//33 258//33
f 258//2 290//2 291//2
f 259//3 291//3 292//3
f 260//4 292//4 293//4
f 261//5 293//5 294//5
f 262//6 294//6 295//6
f 263//7 295//7 296//7
f 264//8 296//8 297//8
f 265//9 297//9 298//9
f 266//10 298//10 299//10
f 267//11 299//11 300//11
f 268//12 300//12 301//12
f 269//13 301//13 302//13
f 270//14 302//14 303//14
f 271//15 303//15 304//15
f 272//16 304//16 305//16
f 273//17 305//17 306//17
f 274//18 306//18 307//18
f 275//19 307//19 308//19
f 276//20 308//20 309//20
f 277//21 309//21 310//21
f 278//22 310//22 311//22
f 279//23 311//23 312//23
f 280//24 312//24 313//24
f 281//25 313//25 314//25
f 282//26 314//26 315//26
f 283//27 315//27 316//27
f 284//28 316//28 317//28
f 285//29 317//29 318//29
f 286//30 318//30 319//30
f 287//31 319//31 320//31
f 288//32 320//32 321//32
f 289//33 321//33 290//33
f 290//2 322//2 323//2
f 291//3 323//3 324//3
f 292//4 324//4 325//4
f 293//5 325//5 326//5
f 294//6 326//6 327//6
f 295//7 327//7 328//7
f 296//8 328//8 329//8
f 297//9 329//9 330//9
f 298//10 330//10 331//10
f 299//11 331//11 332//11
f 300//12 332//12 333//12
f 301//13 333//13 334//13
f 302//14 334//14 335//14
f 303//15 335//15 336//15
f 304//16 336//16 337//16
f 305//17 337//17 338//17
f 306//18 338//18 339//18
f 307//19 339//19 340//19
f 308//20 340//20 341//20
f 309//21 341//21 342//21
f 310//22 342//22 343//22
f 311//23 343//23 344//23
f 312//24 344//24 345//24
f 313//25 345//25 346//25
f 314//26 346//26 347//26
f 315//27 347//27 348//27
f 316//28 348//28 349//28
f 317//29 349//29 350//29
f 318//30 350//30 351//30
f 319//31 351//31 352//31
f 320//32 352//32 353//32
f 321//33 353//33 322//33
f 322//2 354//2 355//2
f 323//3 355//3 356//3
f 324//4 356//4 357//4
f 325//5 357//5 358//5
f 326//6 358//6 359//6
f 327//7 359//7 360//7
f 328//8 360//8 361//8
f 329//9 361//9 362//9
f 330//10 362//10 363//10
f 331//11 363//11 364//11
f 332//12 364//12 365//12
f 333//13 365//13 366//13
f 334//14 366//14 367//14
f 335//15 367//15 368//15
f 336//16 368//16 369//16
f 337//17 369//17 370//17
f 338//18 370//18 371//18
f 339//19 371//19 372//19
f 340//20 372//20 373//20
f 341//21 373//21 374//21
f 342//22 374//22 375//22
f 343//23 375//23 376//23
f 344//24 376//24 377//24
f 345//25 377//25 378//25
f 346//26 378//26 379//26
f 347//27 379//27 380//27
f 348//28 380//28 381//28
f 349//29 381//29 382//29
f 350//30 382//30 383//30
f 351//31 383//31 384//31
f 352//32 384//32 385//32
f 353//33 385//33 354//33
f 354//34 386//34 387//34
f 355//34 387//34 388//34
f 356//34 388//34 389//34
f 357//34 389//34 390//34
f 358//34 390//34 391//34
f 359//34 391//34 392//34
f 360//34 392//34 393//34
f 361//34 393//34 394//34
f 362//34 394//34 395//34
f 363//34 395//34 396//34
f 364//34 396//34 397//34
f 365//34 397//34 398//34
f 366//34 398//34 399//34
f 367//34 399//34 400//34
f 368//34 400//34 401//34
f 369//34 401//34 402//34
f 370//34 402//34 403//34
f 371//34 403//34 404//34
f 372//34 404//34 405//34
f 373//34 405//34 406//34
f 374//34 406//34 407//34
f 375//34 407//34 408//34
f 376//34 408//34 409//34
f 377//34 409//34 410//34
f 378//34 410//34 411//34
f 379//34 411//34 412//34
f 380//34 412//34 413//34
f 381//34 413//34 414//34
f 382//34 414//34 415//34
f 383//34 415//34 416//34
f 384//34 416//34 417//34
f 385//34 417//34 386//34
f 386//34 418//34 419//34
f 387//34 419//34 420//34
f 388//34 420//34 421//34
f 389//34 421//34 422//34
f 390//34 422//34 423//34
f 391//34 423//34 424//34
f 392//34 424//34 425//34
f 393//34 425//34 426//34
f 394//34 426//34 427//34
f 395//34 427//34 428//34
f 396//34 428//34 429//34
f 397//34 429//34 430//34
f 398//34 430//34 431//34
f 399//34 431//34 432//34
f 400//34 432//34 433//34
f 401//34 433//34 434//34
f 402//34 434//34 435//34
f 403//34 435//34 436//34
f 404//34 436//34 437//34
f 405//34 437//34 438//34
f 406//34 438//34 439//34
f 407//34 439//34 440//34
f 408//34 440//34 441//34
f 409//34 441//34 442//34
f 410//34 442//34 443//34
f 411//34 443//34 444//34
f 412//34 444//34 445//34
f 413//34 445//34 446//34
f 414//34 446//34 447//34
f 415//34 447//34 448//34
f 416//34 448//34 449//34
f 417//34 449//34 418//34
f 418//34 450//34 451//34
f 419//34 451//34 452//34
f 420//34 452//34 453//34
f 421//34 453//34 454//34
f 422//34 454//34 455//34
f 423//34 455//34 456//34
f 424//34 456//34 457//34
f 425//34 457//34 458//34
f 426//34 458//34 459//34
f 427//34 459//34 460//34
f 428//34 460//34 461//34
f 429//34 461//34 462//34
f 430//34 462//34 463//34
f 431//34 463//34 464//34
f 432//34 464//34 465//34
f 433//34 465//34 466//34
f 434//34 466//34 467//34
f 435//34 467//34 468//34
f 436//34 468//34 469//34
f 437//34 469//34 470//34
f 438//34 470//34 471//34
f 439//34 471//34 472//34
f 440//34 472//34 473//34
f 441//34 473//34 474//34
f 442//34 474//34 475//34
f 443//34 475//34 476//34
f 444//34 476//34 477//34
f 445//34 477//34 478//34
f 446//34 478//34 479//34
f 447//34 479//34 480//34
f 448//34 480//34 481//34
f 449//34 481//34 450//34
f 450//34 482//34 483//34
f 451//34 483//34 484//34
f 452//34 484//34 485//34
f 453//34 485//34 486//34
f 454//34 486//34 487//34
f 455//34 487//34 488//34
f 456//34 488//34 489//34
f 457//34 489//34 490//34
f 458//34 490//34 491//34
f 459//34 491//34 492//34
f 460//34 492//34 493//34
f 461//34 493//34 494//34
f 462//34 494//34 495//34
f 463//34 495//34 496//34
f 464//34 496//34 497//34
f 465//34 497//34 498//34
f 466//34 498//34 499//34
f 467//34 499//34 500//34
f 468//34 500//34 501//34
f 469//34 501//34 502//34
f 470//34 502//34 503//34
f 471//34 503//34 504//34
f 472//34 504//34 505//34
f 473//34 505//34 506//34
f 474//34 506//34 507//34
f 475//34 507//34 508//34
f 476//34 508//34 509//34
f 477//34 509//34 510//34
f 478//34 510//34 511//34
f 479//34 511//34 512//34
f 480//34 512//34 513//34
f 481//34 513//34 482//34
f 482//34 514//34 515//34
f 483//34 515//34 516//34
f 484//34 516//34 517//34
f 485//34 517//34 518//34
f 486//34 518//34 519//34
f 487//34 519//34 520//34
f 488//34 520//34 521//34
f 489//34 521//34 522//34
f 490//34 522//34 523//34
f 491//34 523//34 524//34
f 492//34 524//34 525//34
f 493//34 525//34 526//34
f 494//34 526//34 527//34
f 495//34 527//34 528//34
f 496//34 528//34 529//34
f 497//34 529//34 530//34
f 498//34 530//34 531//34
f 499//34 531//34 532//34
f 500//34 532//34 533//34
f 501//34 533//34 534//34
f 502//34 534//34 535//34
f 503//34 535//34 536//34
f 504//34 536//34 537//34
f 505//34 537//34 538//34
f 506//34 538//34 539//34
f 507//34 539//34 540//34
f 508//34 540//34 541//34
f 509//34 541//34 542//34
f 510//34 542//34 543//34
f 511//34 543//34 544//34
f 512//34 544//34 545//34
f 513//34 545//34 514//34
